%TF.GenerationSoftware,KiCad,Pcbnew,(6.0.10)*%
%TF.CreationDate,2023-07-26T11:36:41-05:00*%
%TF.ProjectId,Open Apple 1 SBC,4f70656e-2041-4707-906c-652031205342,rev?*%
%TF.SameCoordinates,Original*%
%TF.FileFunction,Soldermask,Bot*%
%TF.FilePolarity,Negative*%
%FSLAX46Y46*%
G04 Gerber Fmt 4.6, Leading zero omitted, Abs format (unit mm)*
G04 Created by KiCad (PCBNEW (6.0.10)) date 2023-07-26 11:36:41*
%MOMM*%
%LPD*%
G01*
G04 APERTURE LIST*
G04 Aperture macros list*
%AMRoundRect*
0 Rectangle with rounded corners*
0 $1 Rounding radius*
0 $2 $3 $4 $5 $6 $7 $8 $9 X,Y pos of 4 corners*
0 Add a 4 corners polygon primitive as box body*
4,1,4,$2,$3,$4,$5,$6,$7,$8,$9,$2,$3,0*
0 Add four circle primitives for the rounded corners*
1,1,$1+$1,$2,$3*
1,1,$1+$1,$4,$5*
1,1,$1+$1,$6,$7*
1,1,$1+$1,$8,$9*
0 Add four rect primitives between the rounded corners*
20,1,$1+$1,$2,$3,$4,$5,0*
20,1,$1+$1,$4,$5,$6,$7,0*
20,1,$1+$1,$6,$7,$8,$9,0*
20,1,$1+$1,$8,$9,$2,$3,0*%
G04 Aperture macros list end*
%ADD10R,1.700000X1.700000*%
%ADD11O,1.700000X1.700000*%
%ADD12R,1.200000X1.200000*%
%ADD13C,1.200000*%
%ADD14R,1.800000X1.800000*%
%ADD15C,1.800000*%
%ADD16R,1.600000X1.600000*%
%ADD17O,1.600000X1.600000*%
%ADD18C,5.000000*%
%ADD19C,1.600000*%
%ADD20C,2.000000*%
%ADD21C,4.000000*%
%ADD22C,1.500000*%
%ADD23C,3.000000*%
%ADD24R,3.500000X3.500000*%
%ADD25RoundRect,0.750000X-1.000000X0.750000X-1.000000X-0.750000X1.000000X-0.750000X1.000000X0.750000X0*%
%ADD26RoundRect,0.875000X-0.875000X0.875000X-0.875000X-0.875000X0.875000X-0.875000X0.875000X0.875000X0*%
%ADD27R,2.000000X1.905000*%
%ADD28O,2.000000X1.905000*%
G04 APERTURE END LIST*
D10*
%TO.C,A1*%
X98425000Y-80645000D03*
D11*
X98425000Y-83185000D03*
X98425000Y-85725000D03*
%TD*%
D10*
%TO.C,A2*%
X105410000Y-80645000D03*
D11*
X105410000Y-83185000D03*
X105410000Y-85725000D03*
%TD*%
D12*
%TO.C,C3*%
X124460000Y-52705000D03*
D13*
X126460000Y-52705000D03*
%TD*%
D14*
%TO.C,D1*%
X208915000Y-42545000D03*
D15*
X211455000Y-42545000D03*
%TD*%
D10*
%TO.C,J5*%
X170180000Y-127000000D03*
D11*
X167640000Y-127000000D03*
%TD*%
D16*
%TO.C,J6*%
X182880000Y-77470000D03*
D17*
X182880000Y-74930000D03*
X182880000Y-72390000D03*
X182880000Y-69850000D03*
X182880000Y-67310000D03*
X182880000Y-64770000D03*
X182880000Y-62230000D03*
X182880000Y-59690000D03*
X182880000Y-57150000D03*
X182880000Y-54610000D03*
X182880000Y-52070000D03*
X182880000Y-49530000D03*
X182880000Y-46990000D03*
X182880000Y-44450000D03*
X182880000Y-41910000D03*
X167640000Y-41910000D03*
X167640000Y-44450000D03*
X167640000Y-46990000D03*
X167640000Y-49530000D03*
X167640000Y-52070000D03*
X167640000Y-54610000D03*
X167640000Y-57150000D03*
X167640000Y-59690000D03*
X167640000Y-62230000D03*
X167640000Y-64770000D03*
X167640000Y-67310000D03*
X167640000Y-69850000D03*
X167640000Y-72390000D03*
X167640000Y-74930000D03*
X167640000Y-77470000D03*
%TD*%
D18*
%TO.C,J1*%
X233680000Y-128270000D03*
%TD*%
%TO.C,J2*%
X233680000Y-40640000D03*
%TD*%
%TO.C,J3*%
X50800000Y-128270000D03*
%TD*%
%TO.C,J4*%
X50800000Y-40640000D03*
%TD*%
D19*
%TO.C,R1*%
X106680000Y-71120000D03*
D17*
X116840000Y-71120000D03*
%TD*%
D19*
%TO.C,R2*%
X106680000Y-52070000D03*
D17*
X116840000Y-52070000D03*
%TD*%
D19*
%TO.C,R3*%
X106680000Y-58420000D03*
D17*
X116840000Y-58420000D03*
%TD*%
D19*
%TO.C,R4*%
X106680000Y-64770000D03*
D17*
X116840000Y-64770000D03*
%TD*%
D19*
%TO.C,R5*%
X191770000Y-41275000D03*
D17*
X201930000Y-41275000D03*
%TD*%
D19*
%TO.C,R6*%
X61595000Y-127000000D03*
D17*
X71755000Y-127000000D03*
%TD*%
D19*
%TO.C,R7*%
X75565000Y-127000000D03*
D17*
X85725000Y-127000000D03*
%TD*%
D19*
%TO.C,R8*%
X98425000Y-127000000D03*
D17*
X108585000Y-127000000D03*
%TD*%
D19*
%TO.C,R9*%
X191770000Y-46990000D03*
D17*
X201930000Y-46990000D03*
%TD*%
D19*
%TO.C,R10*%
X151765000Y-76327000D03*
D17*
X161925000Y-76327000D03*
%TD*%
D20*
%TO.C,SW1*%
X75275000Y-40600000D03*
X68775000Y-40600000D03*
X75275000Y-45100000D03*
X68775000Y-45100000D03*
%TD*%
D16*
%TO.C,U9*%
X176530000Y-104140000D03*
D17*
X173990000Y-104140000D03*
X171450000Y-104140000D03*
X168910000Y-104140000D03*
X166370000Y-104140000D03*
X163830000Y-104140000D03*
X161290000Y-104140000D03*
X158750000Y-104140000D03*
X156210000Y-104140000D03*
X153670000Y-104140000D03*
X151130000Y-104140000D03*
X148590000Y-104140000D03*
X146050000Y-104140000D03*
X143510000Y-104140000D03*
X140970000Y-104140000D03*
X138430000Y-104140000D03*
X135890000Y-104140000D03*
X133350000Y-104140000D03*
X130810000Y-104140000D03*
X128270000Y-104140000D03*
X128270000Y-119380000D03*
X130810000Y-119380000D03*
X133350000Y-119380000D03*
X135890000Y-119380000D03*
X138430000Y-119380000D03*
X140970000Y-119380000D03*
X143510000Y-119380000D03*
X146050000Y-119380000D03*
X148590000Y-119380000D03*
X151130000Y-119380000D03*
X153670000Y-119380000D03*
X156210000Y-119380000D03*
X158750000Y-119380000D03*
X161290000Y-119380000D03*
X163830000Y-119380000D03*
X166370000Y-119380000D03*
X168910000Y-119380000D03*
X171450000Y-119380000D03*
X173990000Y-119380000D03*
X176530000Y-119380000D03*
%TD*%
D16*
%TO.C,U4*%
X90170000Y-77470000D03*
D17*
X87630000Y-77470000D03*
X85090000Y-77470000D03*
X82550000Y-77470000D03*
X80010000Y-77470000D03*
X77470000Y-77470000D03*
X74930000Y-77470000D03*
X72390000Y-77470000D03*
X69850000Y-77470000D03*
X67310000Y-77470000D03*
X64770000Y-77470000D03*
X62230000Y-77470000D03*
X59690000Y-77470000D03*
X57150000Y-77470000D03*
X57150000Y-92710000D03*
X59690000Y-92710000D03*
X62230000Y-92710000D03*
X64770000Y-92710000D03*
X67310000Y-92710000D03*
X69850000Y-92710000D03*
X72390000Y-92710000D03*
X74930000Y-92710000D03*
X77470000Y-92710000D03*
X80010000Y-92710000D03*
X82550000Y-92710000D03*
X85090000Y-92710000D03*
X87630000Y-92710000D03*
X90170000Y-92710000D03*
%TD*%
D16*
%TO.C,U1*%
X206290000Y-59195000D03*
D17*
X203750000Y-59195000D03*
X201210000Y-59195000D03*
X198670000Y-59195000D03*
X196130000Y-59195000D03*
X193590000Y-59195000D03*
X191050000Y-59195000D03*
X188510000Y-59195000D03*
X188510000Y-66815000D03*
X191050000Y-66815000D03*
X193590000Y-66815000D03*
X196130000Y-66815000D03*
X198670000Y-66815000D03*
X201210000Y-66815000D03*
X203750000Y-66815000D03*
X206290000Y-66815000D03*
%TD*%
D16*
%TO.C,U2*%
X146050000Y-77470000D03*
D17*
X143510000Y-77470000D03*
X140970000Y-77470000D03*
X138430000Y-77470000D03*
X135890000Y-77470000D03*
X133350000Y-77470000D03*
X130810000Y-77470000D03*
X128270000Y-77470000D03*
X125730000Y-77470000D03*
X123190000Y-77470000D03*
X120650000Y-77470000D03*
X118110000Y-77470000D03*
X115570000Y-77470000D03*
X113030000Y-77470000D03*
X113030000Y-92710000D03*
X115570000Y-92710000D03*
X118110000Y-92710000D03*
X120650000Y-92710000D03*
X123190000Y-92710000D03*
X125730000Y-92710000D03*
X128270000Y-92710000D03*
X130810000Y-92710000D03*
X133350000Y-92710000D03*
X135890000Y-92710000D03*
X138430000Y-92710000D03*
X140970000Y-92710000D03*
X143510000Y-92710000D03*
X146050000Y-92710000D03*
%TD*%
D16*
%TO.C,U3*%
X203750000Y-85230000D03*
D17*
X201210000Y-85230000D03*
X198670000Y-85230000D03*
X196130000Y-85230000D03*
X193590000Y-85230000D03*
X191050000Y-85230000D03*
X188510000Y-85230000D03*
X188510000Y-92850000D03*
X191050000Y-92850000D03*
X193590000Y-92850000D03*
X196130000Y-92850000D03*
X198670000Y-92850000D03*
X201210000Y-92850000D03*
X203750000Y-92850000D03*
%TD*%
D16*
%TO.C,U5*%
X203750000Y-71895000D03*
D17*
X201210000Y-71895000D03*
X198670000Y-71895000D03*
X196130000Y-71895000D03*
X193590000Y-71895000D03*
X191050000Y-71895000D03*
X188510000Y-71895000D03*
X188510000Y-79515000D03*
X191050000Y-79515000D03*
X193590000Y-79515000D03*
X196130000Y-79515000D03*
X198670000Y-79515000D03*
X201210000Y-79515000D03*
X203750000Y-79515000D03*
%TD*%
D16*
%TO.C,U7*%
X105410000Y-104140000D03*
D17*
X102870000Y-104140000D03*
X100330000Y-104140000D03*
X97790000Y-104140000D03*
X95250000Y-104140000D03*
X92710000Y-104140000D03*
X90170000Y-104140000D03*
X87630000Y-104140000D03*
X85090000Y-104140000D03*
X82550000Y-104140000D03*
X80010000Y-104140000D03*
X77470000Y-104140000D03*
X74930000Y-104140000D03*
X72390000Y-104140000D03*
X69850000Y-104140000D03*
X67310000Y-104140000D03*
X64770000Y-104140000D03*
X62230000Y-104140000D03*
X59690000Y-104140000D03*
X57150000Y-104140000D03*
X57150000Y-119380000D03*
X59690000Y-119380000D03*
X62230000Y-119380000D03*
X64770000Y-119380000D03*
X67310000Y-119380000D03*
X69850000Y-119380000D03*
X72390000Y-119380000D03*
X74930000Y-119380000D03*
X77470000Y-119380000D03*
X80010000Y-119380000D03*
X82550000Y-119380000D03*
X85090000Y-119380000D03*
X87630000Y-119380000D03*
X90170000Y-119380000D03*
X92710000Y-119380000D03*
X95250000Y-119380000D03*
X97790000Y-119380000D03*
X100330000Y-119380000D03*
X102870000Y-119380000D03*
X105410000Y-119380000D03*
%TD*%
D16*
%TO.C,U8*%
X156210000Y-60325000D03*
D17*
X153670000Y-60325000D03*
X151130000Y-60325000D03*
X148590000Y-60325000D03*
X146050000Y-60325000D03*
X143510000Y-60325000D03*
X140970000Y-60325000D03*
X138430000Y-60325000D03*
X135890000Y-60325000D03*
X133350000Y-60325000D03*
X130810000Y-60325000D03*
X128270000Y-60325000D03*
X125730000Y-60325000D03*
X123190000Y-60325000D03*
X123190000Y-67945000D03*
X125730000Y-67945000D03*
X128270000Y-67945000D03*
X130810000Y-67945000D03*
X133350000Y-67945000D03*
X135890000Y-67945000D03*
X138430000Y-67945000D03*
X140970000Y-67945000D03*
X143510000Y-67945000D03*
X146050000Y-67945000D03*
X148590000Y-67945000D03*
X151130000Y-67945000D03*
X153670000Y-67945000D03*
X156210000Y-67945000D03*
%TD*%
D16*
%TO.C,X1*%
X57150000Y-60960000D03*
D19*
X64770000Y-60960000D03*
X72390000Y-60960000D03*
X64770000Y-53340000D03*
X72390000Y-53340000D03*
X57150000Y-53340000D03*
%TD*%
D10*
%TO.C,JP1*%
X51200000Y-69700000D03*
D11*
X51200000Y-72240000D03*
%TD*%
D19*
%TO.C,C5*%
X89535000Y-127000000D03*
X92035000Y-127000000D03*
%TD*%
%TO.C,C6*%
X57230000Y-69215000D03*
X59730000Y-69215000D03*
%TD*%
%TO.C,C7*%
X213400000Y-61350000D03*
X213400000Y-63850000D03*
%TD*%
%TO.C,C8*%
X66675000Y-69215000D03*
X69175000Y-69215000D03*
%TD*%
%TO.C,C9*%
X211130000Y-74110000D03*
X211130000Y-76610000D03*
%TD*%
%TO.C,C1*%
X99060000Y-64690000D03*
X99060000Y-62190000D03*
%TD*%
%TO.C,C10*%
X211040000Y-87690000D03*
X211040000Y-90190000D03*
%TD*%
%TO.C,C11*%
X99060000Y-73025000D03*
X99060000Y-70525000D03*
%TD*%
%TO.C,C12*%
X75565000Y-69215000D03*
X78065000Y-69215000D03*
%TD*%
%TO.C,C4*%
X99060000Y-55800000D03*
X99060000Y-53300000D03*
%TD*%
%TO.C,C13*%
X206980000Y-124150000D03*
X206980000Y-126650000D03*
%TD*%
%TO.C,C14*%
X214600000Y-124150000D03*
X214600000Y-126650000D03*
%TD*%
D12*
%TO.C,C17*%
X186660000Y-115895000D03*
D13*
X188660000Y-115895000D03*
%TD*%
D19*
%TO.C,C18*%
X186660000Y-126690000D03*
X189160000Y-126690000D03*
%TD*%
D21*
%TO.C,J7*%
X136195000Y-41765000D03*
X111195000Y-41765000D03*
D16*
X119380000Y-43815000D03*
D19*
X121670000Y-43815000D03*
X123960000Y-43815000D03*
X126250000Y-43815000D03*
X128540000Y-43815000D03*
X118235000Y-41835000D03*
X120525000Y-41835000D03*
X122815000Y-41835000D03*
X125105000Y-41835000D03*
X127395000Y-41835000D03*
X119380000Y-39855000D03*
X121670000Y-39855000D03*
X123960000Y-39855000D03*
X126250000Y-39855000D03*
X128540000Y-39855000D03*
%TD*%
D10*
%TO.C,P2*%
X198090000Y-125420000D03*
D11*
X198090000Y-127960000D03*
%TD*%
D19*
%TO.C,R12*%
X151765000Y-82042000D03*
D17*
X161925000Y-82042000D03*
%TD*%
D19*
%TO.C,R14*%
X151765000Y-87757000D03*
D17*
X161925000Y-87757000D03*
%TD*%
D19*
%TO.C,R15*%
X151765000Y-93472000D03*
D17*
X161925000Y-93472000D03*
%TD*%
D19*
%TO.C,R16*%
X194280000Y-115895000D03*
D17*
X204440000Y-115895000D03*
%TD*%
D16*
%TO.C,U11*%
X219045000Y-100020000D03*
D17*
X216505000Y-100020000D03*
X213965000Y-100020000D03*
X211425000Y-100020000D03*
X208885000Y-100020000D03*
X206345000Y-100020000D03*
X203805000Y-100020000D03*
X201265000Y-100020000D03*
X198725000Y-100020000D03*
X196185000Y-100020000D03*
X193645000Y-100020000D03*
X191105000Y-100020000D03*
X188565000Y-100020000D03*
X186025000Y-100020000D03*
X186025000Y-107640000D03*
X188565000Y-107640000D03*
X191105000Y-107640000D03*
X193645000Y-107640000D03*
X196185000Y-107640000D03*
X198725000Y-107640000D03*
X201265000Y-107640000D03*
X203805000Y-107640000D03*
X206345000Y-107640000D03*
X208885000Y-107640000D03*
X211425000Y-107640000D03*
X213965000Y-107640000D03*
X216505000Y-107640000D03*
X219045000Y-107640000D03*
%TD*%
D22*
%TO.C,Y1*%
X212060000Y-115895000D03*
X216940000Y-115895000D03*
%TD*%
D10*
%TO.C,P3*%
X159230000Y-51240000D03*
D11*
X156690000Y-51240000D03*
X154150000Y-51240000D03*
X151610000Y-51240000D03*
X149070000Y-51240000D03*
X146530000Y-51240000D03*
%TD*%
D14*
%TO.C,D2*%
X118110000Y-125730000D03*
D15*
X120650000Y-125730000D03*
%TD*%
D19*
%TO.C,R11*%
X128270000Y-127000000D03*
D17*
X138430000Y-127000000D03*
%TD*%
D19*
%TO.C,R17*%
X93980000Y-69215000D03*
D17*
X83820000Y-69215000D03*
%TD*%
D22*
%TO.C,P4*%
X90805000Y-46355000D03*
X88265000Y-46355000D03*
X86235000Y-46355000D03*
X83695000Y-46355000D03*
D23*
X94365000Y-43685000D03*
X80645000Y-43685000D03*
%TD*%
D10*
%TO.C,A3*%
X218510000Y-85805000D03*
D11*
X218510000Y-88345000D03*
X218510000Y-90885000D03*
%TD*%
D19*
%TO.C,R13*%
X151765000Y-99568000D03*
D17*
X161925000Y-99568000D03*
%TD*%
D10*
%TO.C,P1*%
X228530000Y-67000000D03*
D11*
X231070000Y-67000000D03*
X228530000Y-69540000D03*
X231070000Y-69540000D03*
X228530000Y-72080000D03*
X231070000Y-72080000D03*
X228530000Y-74620000D03*
X231070000Y-74620000D03*
X228530000Y-77160000D03*
X231070000Y-77160000D03*
X228530000Y-79700000D03*
X231070000Y-79700000D03*
X228530000Y-82240000D03*
X231070000Y-82240000D03*
X228530000Y-84780000D03*
X231070000Y-84780000D03*
X228530000Y-87320000D03*
X231070000Y-87320000D03*
X228530000Y-89860000D03*
X231070000Y-89860000D03*
X228530000Y-92400000D03*
X231070000Y-92400000D03*
X228530000Y-94940000D03*
X231070000Y-94940000D03*
X228530000Y-97480000D03*
X231070000Y-97480000D03*
X228530000Y-100020000D03*
X231070000Y-100020000D03*
X228530000Y-102560000D03*
X231070000Y-102560000D03*
X228530000Y-105100000D03*
X231070000Y-105100000D03*
X228530000Y-107640000D03*
X231070000Y-107640000D03*
X228530000Y-110180000D03*
X231070000Y-110180000D03*
X228530000Y-112720000D03*
X231070000Y-112720000D03*
X228530000Y-115260000D03*
X231070000Y-115260000D03*
X228530000Y-117800000D03*
X231070000Y-117800000D03*
X228530000Y-120340000D03*
X231070000Y-120340000D03*
%TD*%
D24*
%TO.C,CON1*%
X223901000Y-47625000D03*
D25*
X223901000Y-41625000D03*
D26*
X219201000Y-44625000D03*
%TD*%
D16*
%TO.C,U6*%
X83460000Y-53390000D03*
D17*
X83460000Y-55930000D03*
X83460000Y-58470000D03*
X83460000Y-61010000D03*
X91080000Y-61010000D03*
X91080000Y-58470000D03*
X91080000Y-55930000D03*
X91080000Y-53390000D03*
%TD*%
D19*
%TO.C,C15*%
X220110000Y-54070000D03*
X225110000Y-54070000D03*
%TD*%
%TO.C,C16*%
X220110000Y-61170000D03*
X225110000Y-61170000D03*
%TD*%
D10*
%TO.C,A4*%
X218510000Y-71955000D03*
D11*
X218510000Y-74495000D03*
X218510000Y-77035000D03*
%TD*%
D10*
%TO.C,JP2*%
X209125000Y-51150000D03*
D11*
X211665000Y-51150000D03*
%TD*%
D27*
%TO.C,U10*%
X233275000Y-50900000D03*
D28*
X233275000Y-53440000D03*
X233275000Y-55980000D03*
%TD*%
D10*
%TO.C,JP3*%
X51200000Y-60275000D03*
D11*
X51200000Y-62815000D03*
%TD*%
D19*
%TO.C,C2*%
X171600000Y-87975000D03*
X176600000Y-87975000D03*
%TD*%
D20*
%TO.C,SW2*%
X57525000Y-40600000D03*
X64025000Y-40600000D03*
X57525000Y-45100000D03*
X64025000Y-45100000D03*
%TD*%
D19*
%TO.C,R18*%
X191800000Y-52425000D03*
D17*
X201960000Y-52425000D03*
%TD*%
M02*
