%TF.GenerationSoftware,KiCad,Pcbnew,(6.0.10)*%
%TF.CreationDate,2023-07-26T11:36:41-05:00*%
%TF.ProjectId,Open Apple 1 SBC,4f70656e-2041-4707-906c-652031205342,rev?*%
%TF.SameCoordinates,Original*%
%TF.FileFunction,Copper,L1,Top*%
%TF.FilePolarity,Positive*%
%FSLAX46Y46*%
G04 Gerber Fmt 4.6, Leading zero omitted, Abs format (unit mm)*
G04 Created by KiCad (PCBNEW (6.0.10)) date 2023-07-26 11:36:41*
%MOMM*%
%LPD*%
G01*
G04 APERTURE LIST*
G04 Aperture macros list*
%AMRoundRect*
0 Rectangle with rounded corners*
0 $1 Rounding radius*
0 $2 $3 $4 $5 $6 $7 $8 $9 X,Y pos of 4 corners*
0 Add a 4 corners polygon primitive as box body*
4,1,4,$2,$3,$4,$5,$6,$7,$8,$9,$2,$3,0*
0 Add four circle primitives for the rounded corners*
1,1,$1+$1,$2,$3*
1,1,$1+$1,$4,$5*
1,1,$1+$1,$6,$7*
1,1,$1+$1,$8,$9*
0 Add four rect primitives between the rounded corners*
20,1,$1+$1,$2,$3,$4,$5,0*
20,1,$1+$1,$4,$5,$6,$7,0*
20,1,$1+$1,$6,$7,$8,$9,0*
20,1,$1+$1,$8,$9,$2,$3,0*%
G04 Aperture macros list end*
%TA.AperFunction,ComponentPad*%
%ADD10R,1.700000X1.700000*%
%TD*%
%TA.AperFunction,ComponentPad*%
%ADD11O,1.700000X1.700000*%
%TD*%
%TA.AperFunction,ComponentPad*%
%ADD12R,1.200000X1.200000*%
%TD*%
%TA.AperFunction,ComponentPad*%
%ADD13C,1.200000*%
%TD*%
%TA.AperFunction,ComponentPad*%
%ADD14R,1.800000X1.800000*%
%TD*%
%TA.AperFunction,ComponentPad*%
%ADD15C,1.800000*%
%TD*%
%TA.AperFunction,ComponentPad*%
%ADD16R,1.600000X1.600000*%
%TD*%
%TA.AperFunction,ComponentPad*%
%ADD17O,1.600000X1.600000*%
%TD*%
%TA.AperFunction,ComponentPad*%
%ADD18C,5.000000*%
%TD*%
%TA.AperFunction,ComponentPad*%
%ADD19C,1.600000*%
%TD*%
%TA.AperFunction,ComponentPad*%
%ADD20C,2.000000*%
%TD*%
%TA.AperFunction,ComponentPad*%
%ADD21C,4.000000*%
%TD*%
%TA.AperFunction,ComponentPad*%
%ADD22C,1.500000*%
%TD*%
%TA.AperFunction,ComponentPad*%
%ADD23C,3.000000*%
%TD*%
%TA.AperFunction,ComponentPad*%
%ADD24R,3.500000X3.500000*%
%TD*%
%TA.AperFunction,ComponentPad*%
%ADD25RoundRect,0.750000X-1.000000X0.750000X-1.000000X-0.750000X1.000000X-0.750000X1.000000X0.750000X0*%
%TD*%
%TA.AperFunction,ComponentPad*%
%ADD26RoundRect,0.875000X-0.875000X0.875000X-0.875000X-0.875000X0.875000X-0.875000X0.875000X0.875000X0*%
%TD*%
%TA.AperFunction,ComponentPad*%
%ADD27R,2.000000X1.905000*%
%TD*%
%TA.AperFunction,ComponentPad*%
%ADD28O,2.000000X1.905000*%
%TD*%
%TA.AperFunction,ViaPad*%
%ADD29C,0.600000*%
%TD*%
%TA.AperFunction,Conductor*%
%ADD30C,0.250000*%
%TD*%
G04 APERTURE END LIST*
D10*
%TO.P,A1,1,1*%
%TO.N,VCC*%
X98425000Y-80645000D03*
D11*
%TO.P,A1,2,2*%
%TO.N,A13_W*%
X98425000Y-83185000D03*
%TO.P,A1,3,3*%
%TO.N,GND*%
X98425000Y-85725000D03*
%TD*%
D10*
%TO.P,A2,1,1*%
%TO.N,VCC*%
X105410000Y-80645000D03*
D11*
%TO.P,A2,2,2*%
%TO.N,A14_W*%
X105410000Y-83185000D03*
%TO.P,A2,3,3*%
%TO.N,GND*%
X105410000Y-85725000D03*
%TD*%
D12*
%TO.P,C3,1*%
%TO.N,Net-(C3-Pad1)*%
X124460000Y-52705000D03*
D13*
%TO.P,C3,2*%
%TO.N,GND*%
X126460000Y-52705000D03*
%TD*%
D14*
%TO.P,D1,1,K*%
%TO.N,GND*%
X208915000Y-42545000D03*
D15*
%TO.P,D1,2,A*%
%TO.N,Net-(D1-Pad2)*%
X211455000Y-42545000D03*
%TD*%
D10*
%TO.P,J5,1,P1*%
%TO.N,GND*%
X170180000Y-127000000D03*
D11*
%TO.P,J5,2,P2*%
%TO.N,Net-(J5-Pad2)*%
X167640000Y-127000000D03*
%TD*%
D16*
%TO.P,J6,1,D1/TX*%
%TO.N,TX*%
X182880000Y-77470000D03*
D17*
%TO.P,J6,2,D0/RX*%
%TO.N,Net-(A3-Pad2)*%
X182880000Y-74930000D03*
%TO.P,J6,3,RESET*%
%TO.N,unconnected-(J6-Pad3)*%
X182880000Y-72390000D03*
%TO.P,J6,4,GND*%
%TO.N,GND*%
X182880000Y-69850000D03*
%TO.P,J6,5,D2/INT0*%
%TO.N,KBD_READY*%
X182880000Y-67310000D03*
%TO.P,J6,6,D3/INT1*%
%TO.N,OUT_DA*%
X182880000Y-64770000D03*
%TO.P,J6,7,D4/T0*%
%TO.N,Net-(J6-Pad7)*%
X182880000Y-62230000D03*
%TO.P,J6,8,D5/T1*%
%TO.N,OUT_RDA*%
X182880000Y-59690000D03*
%TO.P,J6,9,D6/AIN0*%
%TO.N,CLR_SCR*%
X182880000Y-57150000D03*
%TO.P,J6,10,D7/AIN1*%
%TO.N,KBD_STROBE*%
X182880000Y-54610000D03*
%TO.P,J6,11,D8/ICP*%
%TO.N,unconnected-(J6-Pad11)*%
X182880000Y-52070000D03*
%TO.P,J6,12,D9/0C1*%
%TO.N,unconnected-(J6-Pad12)*%
X182880000Y-49530000D03*
%TO.P,J6,13,D10/SS*%
%TO.N,Net-(J6-Pad13)*%
X182880000Y-46990000D03*
%TO.P,J6,14,D11/MOSI*%
%TO.N,MOSI*%
X182880000Y-44450000D03*
%TO.P,J6,15,D12/MISO*%
%TO.N,MISO*%
X182880000Y-41910000D03*
%TO.P,J6,16,SCK/D13*%
%TO.N,CLK*%
X167640000Y-41910000D03*
%TO.P,J6,17,3V3*%
%TO.N,Net-(C18-Pad2)*%
X167640000Y-44450000D03*
%TO.P,J6,18,AREF*%
%TO.N,unconnected-(J6-Pad18)*%
X167640000Y-46990000D03*
%TO.P,J6,19,A0*%
%TO.N,unconnected-(J6-Pad19)*%
X167640000Y-49530000D03*
%TO.P,J6,20,A1*%
%TO.N,unconnected-(J6-Pad20)*%
X167640000Y-52070000D03*
%TO.P,J6,21,A2*%
%TO.N,unconnected-(J6-Pad21)*%
X167640000Y-54610000D03*
%TO.P,J6,22,A3*%
%TO.N,unconnected-(J6-Pad22)*%
X167640000Y-57150000D03*
%TO.P,J6,23,A4*%
%TO.N,unconnected-(J6-Pad23)*%
X167640000Y-59690000D03*
%TO.P,J6,24,A5*%
%TO.N,unconnected-(J6-Pad24)*%
X167640000Y-62230000D03*
%TO.P,J6,25,A6*%
%TO.N,unconnected-(J6-Pad25)*%
X167640000Y-64770000D03*
%TO.P,J6,26,A7*%
%TO.N,unconnected-(J6-Pad26)*%
X167640000Y-67310000D03*
%TO.P,J6,27,5V*%
%TO.N,Net-(A4-Pad1)*%
X167640000Y-69850000D03*
%TO.P,J6,28,RESET*%
%TO.N,P_RESET*%
X167640000Y-72390000D03*
%TO.P,J6,29,GND*%
%TO.N,GND*%
X167640000Y-74930000D03*
%TO.P,J6,30,VIN*%
%TO.N,Vin*%
X167640000Y-77470000D03*
%TD*%
D18*
%TO.P,J1,1,P1*%
%TO.N,unconnected-(J1-Pad1)*%
X233680000Y-128270000D03*
%TD*%
%TO.P,J2,1,P1*%
%TO.N,unconnected-(J2-Pad1)*%
X233680000Y-40640000D03*
%TD*%
%TO.P,J3,1,P1*%
%TO.N,unconnected-(J3-Pad1)*%
X50800000Y-128270000D03*
%TD*%
%TO.P,J4,1,P1*%
%TO.N,unconnected-(J4-Pad1)*%
X50800000Y-40640000D03*
%TD*%
D19*
%TO.P,R1,1*%
%TO.N,Net-(R1-Pad1)*%
X106680000Y-71120000D03*
D17*
%TO.P,R1,2*%
%TO.N,VCC*%
X116840000Y-71120000D03*
%TD*%
D19*
%TO.P,R2,1*%
%TO.N,VCC*%
X106680000Y-52070000D03*
D17*
%TO.P,R2,2*%
%TO.N,Net-(C1-Pad1)*%
X116840000Y-52070000D03*
%TD*%
D19*
%TO.P,R3,1*%
%TO.N,VCC*%
X106680000Y-58420000D03*
D17*
%TO.P,R3,2*%
%TO.N,Net-(C3-Pad1)*%
X116840000Y-58420000D03*
%TD*%
D19*
%TO.P,R4,1*%
%TO.N,RESET*%
X106680000Y-64770000D03*
D17*
%TO.P,R4,2*%
%TO.N,VCC*%
X116840000Y-64770000D03*
%TD*%
D19*
%TO.P,R5,1*%
%TO.N,VCC*%
X191770000Y-41275000D03*
D17*
%TO.P,R5,2*%
%TO.N,Net-(D1-Pad2)*%
X201930000Y-41275000D03*
%TD*%
D19*
%TO.P,R6,1*%
%TO.N,RDY*%
X61595000Y-127000000D03*
D17*
%TO.P,R6,2*%
%TO.N,VCC*%
X71755000Y-127000000D03*
%TD*%
D19*
%TO.P,R7,1*%
%TO.N,IRQ*%
X75565000Y-127000000D03*
D17*
%TO.P,R7,2*%
%TO.N,VCC*%
X85725000Y-127000000D03*
%TD*%
D19*
%TO.P,R8,1*%
%TO.N,NMI*%
X98425000Y-127000000D03*
D17*
%TO.P,R8,2*%
%TO.N,VCC*%
X108585000Y-127000000D03*
%TD*%
D19*
%TO.P,R9,1*%
%TO.N,VCC*%
X191770000Y-46990000D03*
D17*
%TO.P,R9,2*%
%TO.N,Net-(J6-Pad13)*%
X201930000Y-46990000D03*
%TD*%
D19*
%TO.P,R10,1*%
%TO.N,Net-(R10-Pad1)*%
X151765000Y-76327000D03*
D17*
%TO.P,R10,2*%
%TO.N,VCC*%
X161925000Y-76327000D03*
%TD*%
D20*
%TO.P,SW1,1,A*%
%TO.N,GND*%
X75275000Y-40600000D03*
X68775000Y-40600000D03*
%TO.P,SW1,2,B*%
%TO.N,Net-(C1-Pad1)*%
X75275000Y-45100000D03*
X68775000Y-45100000D03*
%TD*%
D16*
%TO.P,U9,1,~{VP}*%
%TO.N,Net-(J5-Pad2)*%
X176530000Y-104140000D03*
D17*
%TO.P,U9,2,RDY*%
%TO.N,RDY*%
X173990000Y-104140000D03*
%TO.P,U9,3,PHI1out*%
%TO.N,PHI1*%
X171450000Y-104140000D03*
%TO.P,U9,4,~{IRQ}*%
%TO.N,IRQ*%
X168910000Y-104140000D03*
%TO.P,U9,5,~{ML}*%
%TO.N,unconnected-(U9-Pad5)*%
X166370000Y-104140000D03*
%TO.P,U9,6,~{NMI}*%
%TO.N,NMI*%
X163830000Y-104140000D03*
%TO.P,U9,7,SYNC*%
%TO.N,SYNC*%
X161290000Y-104140000D03*
%TO.P,U9,8,VCC*%
%TO.N,VCC*%
X158750000Y-104140000D03*
%TO.P,U9,9,A0*%
%TO.N,A0*%
X156210000Y-104140000D03*
%TO.P,U9,10,A1*%
%TO.N,A1*%
X153670000Y-104140000D03*
%TO.P,U9,11,A2*%
%TO.N,A2*%
X151130000Y-104140000D03*
%TO.P,U9,12,A3*%
%TO.N,A3*%
X148590000Y-104140000D03*
%TO.P,U9,13,A4*%
%TO.N,A4*%
X146050000Y-104140000D03*
%TO.P,U9,14,A5*%
%TO.N,A5*%
X143510000Y-104140000D03*
%TO.P,U9,15,A6*%
%TO.N,A6*%
X140970000Y-104140000D03*
%TO.P,U9,16,A7*%
%TO.N,A7*%
X138430000Y-104140000D03*
%TO.P,U9,17,A8*%
%TO.N,A8*%
X135890000Y-104140000D03*
%TO.P,U9,18,A9*%
%TO.N,A9*%
X133350000Y-104140000D03*
%TO.P,U9,19,A10*%
%TO.N,A10*%
X130810000Y-104140000D03*
%TO.P,U9,20,A11*%
%TO.N,A11*%
X128270000Y-104140000D03*
%TO.P,U9,21,GND*%
%TO.N,GND*%
X128270000Y-119380000D03*
%TO.P,U9,22,A12*%
%TO.N,A12*%
X130810000Y-119380000D03*
%TO.P,U9,23,A13*%
%TO.N,A13*%
X133350000Y-119380000D03*
%TO.P,U9,24,A14*%
%TO.N,A14*%
X135890000Y-119380000D03*
%TO.P,U9,25,A15*%
%TO.N,A15*%
X138430000Y-119380000D03*
%TO.P,U9,26,D7*%
%TO.N,D7*%
X140970000Y-119380000D03*
%TO.P,U9,27,D6*%
%TO.N,D6*%
X143510000Y-119380000D03*
%TO.P,U9,28,D5*%
%TO.N,D5*%
X146050000Y-119380000D03*
%TO.P,U9,29,D4*%
%TO.N,D4*%
X148590000Y-119380000D03*
%TO.P,U9,30,D3*%
%TO.N,D3*%
X151130000Y-119380000D03*
%TO.P,U9,31,D2*%
%TO.N,D2*%
X153670000Y-119380000D03*
%TO.P,U9,32,D1*%
%TO.N,D1*%
X156210000Y-119380000D03*
%TO.P,U9,33,D0*%
%TO.N,D0*%
X158750000Y-119380000D03*
%TO.P,U9,34,R/~{W}*%
%TO.N,RW*%
X161290000Y-119380000D03*
%TO.P,U9,35,NC*%
%TO.N,unconnected-(U9-Pad35)*%
X163830000Y-119380000D03*
%TO.P,U9,36,BE*%
%TO.N,Net-(R10-Pad1)*%
X166370000Y-119380000D03*
%TO.P,U9,37,PHI2*%
%TO.N,CLOCK*%
X168910000Y-119380000D03*
%TO.P,U9,38,~{SO}*%
%TO.N,VCC*%
X171450000Y-119380000D03*
%TO.P,U9,39,PHI2out*%
%TO.N,PHI2*%
X173990000Y-119380000D03*
%TO.P,U9,40,~{RESET}*%
%TO.N,RESET*%
X176530000Y-119380000D03*
%TD*%
D16*
%TO.P,U4,1,A14*%
%TO.N,A14*%
X90170000Y-77470000D03*
D17*
%TO.P,U4,2,A12*%
%TO.N,A12*%
X87630000Y-77470000D03*
%TO.P,U4,3,A7*%
%TO.N,A7*%
X85090000Y-77470000D03*
%TO.P,U4,4,A6*%
%TO.N,A6*%
X82550000Y-77470000D03*
%TO.P,U4,5,A5*%
%TO.N,A5*%
X80010000Y-77470000D03*
%TO.P,U4,6,A4*%
%TO.N,A4*%
X77470000Y-77470000D03*
%TO.P,U4,7,A3*%
%TO.N,A3*%
X74930000Y-77470000D03*
%TO.P,U4,8,A2*%
%TO.N,A2*%
X72390000Y-77470000D03*
%TO.P,U4,9,A1*%
%TO.N,A1*%
X69850000Y-77470000D03*
%TO.P,U4,10,A0*%
%TO.N,A0*%
X67310000Y-77470000D03*
%TO.P,U4,11,D0*%
%TO.N,D0*%
X64770000Y-77470000D03*
%TO.P,U4,12,D1*%
%TO.N,D1*%
X62230000Y-77470000D03*
%TO.P,U4,13,D2*%
%TO.N,D2*%
X59690000Y-77470000D03*
%TO.P,U4,14,GND*%
%TO.N,GND*%
X57150000Y-77470000D03*
%TO.P,U4,15,D3*%
%TO.N,D3*%
X57150000Y-92710000D03*
%TO.P,U4,16,D4*%
%TO.N,D4*%
X59690000Y-92710000D03*
%TO.P,U4,17,D5*%
%TO.N,D5*%
X62230000Y-92710000D03*
%TO.P,U4,18,D6*%
%TO.N,D6*%
X64770000Y-92710000D03*
%TO.P,U4,19,D7*%
%TO.N,D7*%
X67310000Y-92710000D03*
%TO.P,U4,20,~{CS}*%
%TO.N,A15*%
X69850000Y-92710000D03*
%TO.P,U4,21,A10*%
%TO.N,A10*%
X72390000Y-92710000D03*
%TO.P,U4,22,~{OE}*%
%TO.N,A15*%
X74930000Y-92710000D03*
%TO.P,U4,23,A11*%
%TO.N,A11*%
X77470000Y-92710000D03*
%TO.P,U4,24,A9*%
%TO.N,A9*%
X80010000Y-92710000D03*
%TO.P,U4,25,A8*%
%TO.N,A8*%
X82550000Y-92710000D03*
%TO.P,U4,26,A13*%
%TO.N,A13*%
X85090000Y-92710000D03*
%TO.P,U4,27,~{WE}*%
%TO.N,Net-(U3-Pad11)*%
X87630000Y-92710000D03*
%TO.P,U4,28,VCC*%
%TO.N,VCC*%
X90170000Y-92710000D03*
%TD*%
D16*
%TO.P,U1,1,A0*%
%TO.N,A12*%
X206290000Y-59195000D03*
D17*
%TO.P,U1,2,A1*%
%TO.N,A13*%
X203750000Y-59195000D03*
%TO.P,U1,3,A2*%
%TO.N,A14*%
X201210000Y-59195000D03*
%TO.P,U1,4,E1*%
%TO.N,GND*%
X198670000Y-59195000D03*
%TO.P,U1,5,E2*%
X196130000Y-59195000D03*
%TO.P,U1,6,E3*%
%TO.N,A15*%
X193590000Y-59195000D03*
%TO.P,U1,7,O7*%
%TO.N,Net-(U1-Pad7)*%
X191050000Y-59195000D03*
%TO.P,U1,8,GND*%
%TO.N,GND*%
X188510000Y-59195000D03*
%TO.P,U1,9,O6*%
%TO.N,Net-(U1-Pad9)*%
X188510000Y-66815000D03*
%TO.P,U1,10,O5*%
%TO.N,CS_PIA*%
X191050000Y-66815000D03*
%TO.P,U1,11,O4*%
%TO.N,unconnected-(U1-Pad11)*%
X193590000Y-66815000D03*
%TO.P,U1,12,O3*%
%TO.N,unconnected-(U1-Pad12)*%
X196130000Y-66815000D03*
%TO.P,U1,13,O2*%
%TO.N,unconnected-(U1-Pad13)*%
X198670000Y-66815000D03*
%TO.P,U1,14,O1*%
%TO.N,unconnected-(U1-Pad14)*%
X201210000Y-66815000D03*
%TO.P,U1,15,O0*%
%TO.N,unconnected-(U1-Pad15)*%
X203750000Y-66815000D03*
%TO.P,U1,16,VCC*%
%TO.N,VCC*%
X206290000Y-66815000D03*
%TD*%
D16*
%TO.P,U2,1,A14*%
%TO.N,A14_W*%
X146050000Y-77470000D03*
D17*
%TO.P,U2,2,A12*%
%TO.N,A12*%
X143510000Y-77470000D03*
%TO.P,U2,3,A7*%
%TO.N,A7*%
X140970000Y-77470000D03*
%TO.P,U2,4,A6*%
%TO.N,A6*%
X138430000Y-77470000D03*
%TO.P,U2,5,A5*%
%TO.N,A5*%
X135890000Y-77470000D03*
%TO.P,U2,6,A4*%
%TO.N,A4*%
X133350000Y-77470000D03*
%TO.P,U2,7,A3*%
%TO.N,A3*%
X130810000Y-77470000D03*
%TO.P,U2,8,A2*%
%TO.N,A2*%
X128270000Y-77470000D03*
%TO.P,U2,9,A1*%
%TO.N,A1*%
X125730000Y-77470000D03*
%TO.P,U2,10,A0*%
%TO.N,A0*%
X123190000Y-77470000D03*
%TO.P,U2,11,D0*%
%TO.N,D0*%
X120650000Y-77470000D03*
%TO.P,U2,12,D1*%
%TO.N,D1*%
X118110000Y-77470000D03*
%TO.P,U2,13,D2*%
%TO.N,D2*%
X115570000Y-77470000D03*
%TO.P,U2,14,GND*%
%TO.N,GND*%
X113030000Y-77470000D03*
%TO.P,U2,15,D3*%
%TO.N,D3*%
X113030000Y-92710000D03*
%TO.P,U2,16,D4*%
%TO.N,D4*%
X115570000Y-92710000D03*
%TO.P,U2,17,D5*%
%TO.N,D5*%
X118110000Y-92710000D03*
%TO.P,U2,18,D6*%
%TO.N,D6*%
X120650000Y-92710000D03*
%TO.P,U2,19,D7*%
%TO.N,D7*%
X123190000Y-92710000D03*
%TO.P,U2,20,CS*%
%TO.N,CS_ROM*%
X125730000Y-92710000D03*
%TO.P,U2,21,A10*%
%TO.N,A10*%
X128270000Y-92710000D03*
%TO.P,U2,22,OE*%
%TO.N,CS_ROM*%
X130810000Y-92710000D03*
%TO.P,U2,23,A11*%
%TO.N,A11*%
X133350000Y-92710000D03*
%TO.P,U2,24,A9*%
%TO.N,A9*%
X135890000Y-92710000D03*
%TO.P,U2,25,A8*%
%TO.N,A8*%
X138430000Y-92710000D03*
%TO.P,U2,26,A13*%
%TO.N,A13_W*%
X140970000Y-92710000D03*
%TO.P,U2,27,WE*%
%TO.N,Net-(R1-Pad1)*%
X143510000Y-92710000D03*
%TO.P,U2,28,VCC*%
%TO.N,VCC*%
X146050000Y-92710000D03*
%TD*%
D16*
%TO.P,U3,1*%
%TO.N,Net-(U3-Pad1)*%
X203750000Y-85230000D03*
D17*
%TO.P,U3,2*%
X201210000Y-85230000D03*
%TO.P,U3,3*%
%TO.N,CS_ROM*%
X198670000Y-85230000D03*
%TO.P,U3,4*%
%TO.N,Net-(U1-Pad9)*%
X196130000Y-85230000D03*
%TO.P,U3,5*%
%TO.N,Net-(U1-Pad7)*%
X193590000Y-85230000D03*
%TO.P,U3,6*%
%TO.N,Net-(U3-Pad1)*%
X191050000Y-85230000D03*
%TO.P,U3,7,GND*%
%TO.N,GND*%
X188510000Y-85230000D03*
%TO.P,U3,8*%
%TO.N,Net-(U3-Pad13)*%
X188510000Y-92850000D03*
%TO.P,U3,9*%
%TO.N,RW*%
X191050000Y-92850000D03*
%TO.P,U3,10*%
X193590000Y-92850000D03*
%TO.P,U3,11*%
%TO.N,Net-(U3-Pad11)*%
X196130000Y-92850000D03*
%TO.P,U3,12*%
%TO.N,PHI2*%
X198670000Y-92850000D03*
%TO.P,U3,13*%
%TO.N,Net-(U3-Pad13)*%
X201210000Y-92850000D03*
%TO.P,U3,14,VCC*%
%TO.N,VCC*%
X203750000Y-92850000D03*
%TD*%
D16*
%TO.P,U5,1*%
%TO.N,Net-(U5-Pad1)*%
X203750000Y-71895000D03*
D17*
%TO.P,U5,2*%
%TO.N,Net-(C2-Pad2)*%
X201210000Y-71895000D03*
%TO.P,U5,3*%
%TO.N,Net-(U5-Pad3)*%
X198670000Y-71895000D03*
%TO.P,U5,4*%
%TO.N,RESET*%
X196130000Y-71895000D03*
%TO.P,U5,5*%
%TO.N,GND*%
X193590000Y-71895000D03*
%TO.P,U5,6*%
%TO.N,unconnected-(U5-Pad6)*%
X191050000Y-71895000D03*
%TO.P,U5,7,GND*%
%TO.N,GND*%
X188510000Y-71895000D03*
%TO.P,U5,8*%
%TO.N,unconnected-(U5-Pad8)*%
X188510000Y-79515000D03*
%TO.P,U5,9*%
%TO.N,GND*%
X191050000Y-79515000D03*
%TO.P,U5,10*%
%TO.N,unconnected-(U5-Pad10)*%
X193590000Y-79515000D03*
%TO.P,U5,11*%
%TO.N,GND*%
X196130000Y-79515000D03*
%TO.P,U5,12*%
%TO.N,unconnected-(U5-Pad12)*%
X198670000Y-79515000D03*
%TO.P,U5,13*%
%TO.N,GND*%
X201210000Y-79515000D03*
%TO.P,U5,14,VCC*%
%TO.N,VCC*%
X203750000Y-79515000D03*
%TD*%
D16*
%TO.P,U7,1,GND*%
%TO.N,GND*%
X105410000Y-104140000D03*
D17*
%TO.P,U7,2,PA0*%
%TO.N,KBD_D0*%
X102870000Y-104140000D03*
%TO.P,U7,3,PA1*%
%TO.N,KBD_D1*%
X100330000Y-104140000D03*
%TO.P,U7,4,PA2*%
%TO.N,KBD_D2*%
X97790000Y-104140000D03*
%TO.P,U7,5,PA3*%
%TO.N,KBD_D3*%
X95250000Y-104140000D03*
%TO.P,U7,6,PA4*%
%TO.N,KBD_D4*%
X92710000Y-104140000D03*
%TO.P,U7,7,PA5*%
%TO.N,KBD_D5*%
X90170000Y-104140000D03*
%TO.P,U7,8,PA6*%
%TO.N,KBD_D6*%
X87630000Y-104140000D03*
%TO.P,U7,9,PA7*%
%TO.N,KBD_D7*%
X85090000Y-104140000D03*
%TO.P,U7,10,PB0*%
%TO.N,OUT_D0*%
X82550000Y-104140000D03*
%TO.P,U7,11,PB1*%
%TO.N,OUT_D1*%
X80010000Y-104140000D03*
%TO.P,U7,12,PB2*%
%TO.N,OUT_D2*%
X77470000Y-104140000D03*
%TO.P,U7,13,PB3*%
%TO.N,OUT_D3*%
X74930000Y-104140000D03*
%TO.P,U7,14,PB4*%
%TO.N,OUT_D4*%
X72390000Y-104140000D03*
%TO.P,U7,15,PB5*%
%TO.N,OUT_D5*%
X69850000Y-104140000D03*
%TO.P,U7,16,PB6*%
%TO.N,OUT_D6*%
X67310000Y-104140000D03*
%TO.P,U7,17,PB7*%
%TO.N,OUT_DA*%
X64770000Y-104140000D03*
%TO.P,U7,18,CB1*%
%TO.N,OUT_RDA*%
X62230000Y-104140000D03*
%TO.P,U7,19,CB2*%
%TO.N,Net-(U5-Pad1)*%
X59690000Y-104140000D03*
%TO.P,U7,20,VCC*%
%TO.N,VCC*%
X57150000Y-104140000D03*
%TO.P,U7,21,R/~{W}*%
%TO.N,RW*%
X57150000Y-119380000D03*
%TO.P,U7,22,CS0*%
%TO.N,A4*%
X59690000Y-119380000D03*
%TO.P,U7,23,~{CS2}*%
%TO.N,CS_PIA*%
X62230000Y-119380000D03*
%TO.P,U7,24,CS1*%
%TO.N,VCC*%
X64770000Y-119380000D03*
%TO.P,U7,25,PHI2*%
%TO.N,PHI2*%
X67310000Y-119380000D03*
%TO.P,U7,26,D7*%
%TO.N,D7*%
X69850000Y-119380000D03*
%TO.P,U7,27,D6*%
%TO.N,D6*%
X72390000Y-119380000D03*
%TO.P,U7,28,D5*%
%TO.N,D5*%
X74930000Y-119380000D03*
%TO.P,U7,29,D4*%
%TO.N,D4*%
X77470000Y-119380000D03*
%TO.P,U7,30,D3*%
%TO.N,D3*%
X80010000Y-119380000D03*
%TO.P,U7,31,D2*%
%TO.N,D2*%
X82550000Y-119380000D03*
%TO.P,U7,32,D1*%
%TO.N,D1*%
X85090000Y-119380000D03*
%TO.P,U7,33,D0*%
%TO.N,D0*%
X87630000Y-119380000D03*
%TO.P,U7,34,~{RESET}*%
%TO.N,RESET*%
X90170000Y-119380000D03*
%TO.P,U7,35,RS1*%
%TO.N,A1*%
X92710000Y-119380000D03*
%TO.P,U7,36,RS0*%
%TO.N,A0*%
X95250000Y-119380000D03*
%TO.P,U7,37,~{IRQB}*%
%TO.N,unconnected-(U7-Pad37)*%
X97790000Y-119380000D03*
%TO.P,U7,38,~{IRQA}*%
%TO.N,unconnected-(U7-Pad38)*%
X100330000Y-119380000D03*
%TO.P,U7,39,CA2*%
%TO.N,KBD_READY*%
X102870000Y-119380000D03*
%TO.P,U7,40,CA1*%
%TO.N,KBD_STROBE*%
X105410000Y-119380000D03*
%TD*%
D16*
%TO.P,U8,1,GPB0*%
%TO.N,KBD_D0*%
X156210000Y-60325000D03*
D17*
%TO.P,U8,2,GPB1*%
%TO.N,KBD_D1*%
X153670000Y-60325000D03*
%TO.P,U8,3,GPB2*%
%TO.N,KBD_D2*%
X151130000Y-60325000D03*
%TO.P,U8,4,GPB3*%
%TO.N,KBD_D3*%
X148590000Y-60325000D03*
%TO.P,U8,5,GPB4*%
%TO.N,KBD_D4*%
X146050000Y-60325000D03*
%TO.P,U8,6,GPB5*%
%TO.N,KBD_D5*%
X143510000Y-60325000D03*
%TO.P,U8,7,GPB6*%
%TO.N,KBD_D6*%
X140970000Y-60325000D03*
%TO.P,U8,8,GPB7*%
%TO.N,KBD_D7*%
X138430000Y-60325000D03*
%TO.P,U8,9,VCC*%
%TO.N,VCC*%
X135890000Y-60325000D03*
%TO.P,U8,10,GND*%
%TO.N,GND*%
X133350000Y-60325000D03*
%TO.P,U8,11,~{CS}*%
%TO.N,Net-(J6-Pad13)*%
X130810000Y-60325000D03*
%TO.P,U8,12,SCK*%
%TO.N,CLK*%
X128270000Y-60325000D03*
%TO.P,U8,13,SI*%
%TO.N,MOSI*%
X125730000Y-60325000D03*
%TO.P,U8,14,SO*%
%TO.N,MISO*%
X123190000Y-60325000D03*
%TO.P,U8,15,A0*%
%TO.N,GND*%
X123190000Y-67945000D03*
%TO.P,U8,16,A1*%
X125730000Y-67945000D03*
%TO.P,U8,17,A2*%
X128270000Y-67945000D03*
%TO.P,U8,18,~{RESET}*%
%TO.N,P_RESET*%
X130810000Y-67945000D03*
%TO.P,U8,19,INTB*%
%TO.N,unconnected-(U8-Pad19)*%
X133350000Y-67945000D03*
%TO.P,U8,20,INTA*%
%TO.N,unconnected-(U8-Pad20)*%
X135890000Y-67945000D03*
%TO.P,U8,21,GPA0*%
%TO.N,OUT_D0*%
X138430000Y-67945000D03*
%TO.P,U8,22,GPA1*%
%TO.N,OUT_D1*%
X140970000Y-67945000D03*
%TO.P,U8,23,GPA2*%
%TO.N,OUT_D2*%
X143510000Y-67945000D03*
%TO.P,U8,24,GPA3*%
%TO.N,OUT_D3*%
X146050000Y-67945000D03*
%TO.P,U8,25,GPA4*%
%TO.N,OUT_D4*%
X148590000Y-67945000D03*
%TO.P,U8,26,GPA5*%
%TO.N,OUT_D5*%
X151130000Y-67945000D03*
%TO.P,U8,27,GPA6*%
%TO.N,OUT_D6*%
X153670000Y-67945000D03*
%TO.P,U8,28,GPA7*%
%TO.N,unconnected-(U8-Pad28)*%
X156210000Y-67945000D03*
%TD*%
D16*
%TO.P,X1,1,NC*%
%TO.N,unconnected-(X1-Pad1)*%
X57150000Y-60960000D03*
D19*
%TO.P,X1,7,GND*%
%TO.N,GND*%
X64770000Y-60960000D03*
X72390000Y-60960000D03*
%TO.P,X1,8,OUT*%
%TO.N,CLOCK*%
X64770000Y-53340000D03*
X72390000Y-53340000D03*
%TO.P,X1,14,Vcc*%
%TO.N,VCC*%
X57150000Y-53340000D03*
%TD*%
D10*
%TO.P,JP1,1,1*%
%TO.N,Net-(C1-Pad1)*%
X51200000Y-69700000D03*
D11*
%TO.P,JP1,2,2*%
%TO.N,GND*%
X51200000Y-72240000D03*
%TD*%
D19*
%TO.P,C5,1*%
%TO.N,VCC*%
X89535000Y-127000000D03*
%TO.P,C5,2*%
%TO.N,GND*%
X92035000Y-127000000D03*
%TD*%
%TO.P,C6,1*%
%TO.N,VCC*%
X57230000Y-69215000D03*
%TO.P,C6,2*%
%TO.N,GND*%
X59730000Y-69215000D03*
%TD*%
%TO.P,C7,1*%
%TO.N,VCC*%
X213400000Y-61350000D03*
%TO.P,C7,2*%
%TO.N,GND*%
X213400000Y-63850000D03*
%TD*%
%TO.P,C8,1*%
%TO.N,VCC*%
X66675000Y-69215000D03*
%TO.P,C8,2*%
%TO.N,GND*%
X69175000Y-69215000D03*
%TD*%
%TO.P,C9,1*%
%TO.N,VCC*%
X211130000Y-74110000D03*
%TO.P,C9,2*%
%TO.N,GND*%
X211130000Y-76610000D03*
%TD*%
%TO.P,C1,1*%
%TO.N,Net-(C1-Pad1)*%
X99060000Y-64690000D03*
%TO.P,C1,2*%
%TO.N,GND*%
X99060000Y-62190000D03*
%TD*%
%TO.P,C10,1*%
%TO.N,VCC*%
X211040000Y-87690000D03*
%TO.P,C10,2*%
%TO.N,GND*%
X211040000Y-90190000D03*
%TD*%
%TO.P,C11,1*%
%TO.N,VCC*%
X99060000Y-73025000D03*
%TO.P,C11,2*%
%TO.N,GND*%
X99060000Y-70525000D03*
%TD*%
%TO.P,C12,1*%
%TO.N,VCC*%
X75565000Y-69215000D03*
%TO.P,C12,2*%
%TO.N,GND*%
X78065000Y-69215000D03*
%TD*%
%TO.P,C4,1*%
%TO.N,VCC*%
X99060000Y-55800000D03*
%TO.P,C4,2*%
%TO.N,GND*%
X99060000Y-53300000D03*
%TD*%
%TO.P,C13,1*%
%TO.N,Net-(C13-Pad1)*%
X206980000Y-124150000D03*
%TO.P,C13,2*%
%TO.N,GND*%
X206980000Y-126650000D03*
%TD*%
%TO.P,C14,1*%
%TO.N,Net-(C14-Pad1)*%
X214600000Y-124150000D03*
%TO.P,C14,2*%
%TO.N,GND*%
X214600000Y-126650000D03*
%TD*%
D12*
%TO.P,C17,1*%
%TO.N,Net-(C17-Pad1)*%
X186660000Y-115895000D03*
D13*
%TO.P,C17,2*%
%TO.N,GND*%
X188660000Y-115895000D03*
%TD*%
D19*
%TO.P,C18,1*%
%TO.N,GND*%
X186660000Y-126690000D03*
%TO.P,C18,2*%
%TO.N,Net-(C18-Pad2)*%
X189160000Y-126690000D03*
%TD*%
D21*
%TO.P,J7,0*%
%TO.N,N/C*%
X136195000Y-41765000D03*
X111195000Y-41765000D03*
D16*
%TO.P,J7,1*%
%TO.N,unconnected-(J7-Pad1)*%
X119380000Y-43815000D03*
D19*
%TO.P,J7,2*%
%TO.N,Net-(J7-Pad2)*%
X121670000Y-43815000D03*
%TO.P,J7,3*%
%TO.N,unconnected-(J7-Pad3)*%
X123960000Y-43815000D03*
%TO.P,J7,4*%
%TO.N,unconnected-(J7-Pad4)*%
X126250000Y-43815000D03*
%TO.P,J7,5*%
%TO.N,GND*%
X128540000Y-43815000D03*
%TO.P,J7,6*%
X118235000Y-41835000D03*
%TO.P,J7,7*%
X120525000Y-41835000D03*
%TO.P,J7,8*%
X122815000Y-41835000D03*
%TO.P,J7,9*%
%TO.N,unconnected-(J7-Pad9)*%
X125105000Y-41835000D03*
%TO.P,J7,10*%
%TO.N,GND*%
X127395000Y-41835000D03*
%TO.P,J7,11*%
%TO.N,unconnected-(J7-Pad11)*%
X119380000Y-39855000D03*
%TO.P,J7,12*%
%TO.N,unconnected-(J7-Pad12)*%
X121670000Y-39855000D03*
%TO.P,J7,13*%
%TO.N,Net-(J7-Pad13)*%
X123960000Y-39855000D03*
%TO.P,J7,14*%
%TO.N,Net-(J7-Pad14)*%
X126250000Y-39855000D03*
%TO.P,J7,15*%
%TO.N,unconnected-(J7-Pad15)*%
X128540000Y-39855000D03*
%TD*%
D10*
%TO.P,P2,1,P1*%
%TO.N,Net-(P2-Pad1)*%
X198090000Y-125420000D03*
D11*
%TO.P,P2,2,P2*%
%TO.N,GND*%
X198090000Y-127960000D03*
%TD*%
D19*
%TO.P,R12,1*%
%TO.N,Net-(R12-Pad1)*%
X151765000Y-82042000D03*
D17*
%TO.P,R12,2*%
%TO.N,TX*%
X161925000Y-82042000D03*
%TD*%
D19*
%TO.P,R14,1*%
%TO.N,Net-(P2-Pad1)*%
X151765000Y-87757000D03*
D17*
%TO.P,R14,2*%
%TO.N,Net-(R14-Pad2)*%
X161925000Y-87757000D03*
%TD*%
D19*
%TO.P,R15,1*%
%TO.N,Net-(J7-Pad2)*%
X151765000Y-93472000D03*
D17*
%TO.P,R15,2*%
%TO.N,Net-(R15-Pad2)*%
X161925000Y-93472000D03*
%TD*%
D19*
%TO.P,R16,1*%
%TO.N,Net-(J7-Pad13)*%
X194280000Y-115895000D03*
D17*
%TO.P,R16,2*%
%TO.N,Net-(P2-Pad1)*%
X204440000Y-115895000D03*
%TD*%
D16*
%TO.P,U11,1,MCLR*%
%TO.N,Net-(R13-Pad2)*%
X219045000Y-100020000D03*
D17*
%TO.P,U11,2,AN0/RPA0/RA0/PGED3*%
%TO.N,unconnected-(U11-Pad2)*%
X216505000Y-100020000D03*
%TO.P,U11,3,AN1/RPA1/RA1/PGEC3*%
%TO.N,GND*%
X213965000Y-100020000D03*
%TO.P,U11,4,AN2/RPB0/RB0/PGED1*%
%TO.N,RX*%
X211425000Y-100020000D03*
%TO.P,U11,5,AN3/RPB1/RB1/PGEC1*%
%TO.N,Net-(R12-Pad1)*%
X208885000Y-100020000D03*
%TO.P,U11,6,AN4/RPB2/SDA2/RB2*%
%TO.N,Net-(R14-Pad2)*%
X206345000Y-100020000D03*
%TO.P,U11,7,AN5/RPB3/SCL2/RB3*%
%TO.N,unconnected-(U11-Pad7)*%
X203805000Y-100020000D03*
%TO.P,U11,8,VSS1*%
%TO.N,GND*%
X201265000Y-100020000D03*
%TO.P,U11,9,RPA2/RA2*%
%TO.N,Net-(C13-Pad1)*%
X198725000Y-100020000D03*
%TO.P,U11,10,RPA3/RA3*%
%TO.N,Net-(C14-Pad1)*%
X196185000Y-100020000D03*
%TO.P,U11,11,RPB4/RB4*%
%TO.N,GND*%
X193645000Y-100020000D03*
%TO.P,U11,12,RPA4/RA4*%
%TO.N,Net-(R15-Pad2)*%
X191105000Y-100020000D03*
%TO.P,U11,13,VDD*%
%TO.N,Net-(C18-Pad2)*%
X188565000Y-100020000D03*
%TO.P,U11,14,RPB5/RB5*%
%TO.N,Net-(R11-Pad2)*%
X186025000Y-100020000D03*
%TO.P,U11,15,VBUS*%
%TO.N,Net-(R17-Pad1)*%
X186025000Y-107640000D03*
%TO.P,U11,16,RPB7/INT0/RB7*%
%TO.N,unconnected-(U11-Pad16)*%
X188565000Y-107640000D03*
%TO.P,U11,17,RPB8/SCL1/RB8*%
%TO.N,unconnected-(U11-Pad17)*%
X191105000Y-107640000D03*
%TO.P,U11,18,RPB9/SDA1/RB9*%
%TO.N,Net-(J7-Pad13)*%
X193645000Y-107640000D03*
%TO.P,U11,19,VSS2*%
%TO.N,GND*%
X196185000Y-107640000D03*
%TO.P,U11,20,VCAP*%
%TO.N,Net-(C17-Pad1)*%
X198725000Y-107640000D03*
%TO.P,U11,21,PGED2/RPB10/RB10*%
%TO.N,Net-(P4-Pad3)*%
X201265000Y-107640000D03*
%TO.P,U11,22,PGEC2/RPB11/RB11*%
%TO.N,Net-(P4-Pad2)*%
X203805000Y-107640000D03*
%TO.P,U11,23,VUSB3V3*%
%TO.N,Net-(C18-Pad2)*%
X206345000Y-107640000D03*
%TO.P,U11,24,AN11/RPB13/RB13*%
%TO.N,Net-(J7-Pad14)*%
X208885000Y-107640000D03*
%TO.P,U11,25,AN10/RPB14/SCK1/RB14*%
%TO.N,Net-(J7-Pad13)*%
X211425000Y-107640000D03*
%TO.P,U11,26,AN9/RPB15/SCK2/RB15*%
%TO.N,unconnected-(U11-Pad26)*%
X213965000Y-107640000D03*
%TO.P,U11,27,AVSS*%
%TO.N,GND*%
X216505000Y-107640000D03*
%TO.P,U11,28,AVDD*%
%TO.N,Net-(C18-Pad2)*%
X219045000Y-107640000D03*
%TD*%
D22*
%TO.P,Y1,1,1*%
%TO.N,Net-(C13-Pad1)*%
X212060000Y-115895000D03*
%TO.P,Y1,2,2*%
%TO.N,Net-(C14-Pad1)*%
X216940000Y-115895000D03*
%TD*%
D10*
%TO.P,P3,1,P1*%
%TO.N,Net-(C18-Pad2)*%
X159230000Y-51240000D03*
D11*
%TO.P,P3,2,P2*%
%TO.N,Net-(J6-Pad7)*%
X156690000Y-51240000D03*
%TO.P,P3,3,P3*%
%TO.N,MOSI*%
X154150000Y-51240000D03*
%TO.P,P3,4,P4*%
%TO.N,CLK*%
X151610000Y-51240000D03*
%TO.P,P3,5,P5*%
%TO.N,MISO*%
X149070000Y-51240000D03*
%TO.P,P3,6,P6*%
%TO.N,GND*%
X146530000Y-51240000D03*
%TD*%
D14*
%TO.P,D2,1,K*%
%TO.N,Net-(D2-Pad1)*%
X118110000Y-125730000D03*
D15*
%TO.P,D2,2,A*%
%TO.N,Net-(C18-Pad2)*%
X120650000Y-125730000D03*
%TD*%
D19*
%TO.P,R11,1*%
%TO.N,Net-(D2-Pad1)*%
X128270000Y-127000000D03*
D17*
%TO.P,R11,2*%
%TO.N,Net-(R11-Pad2)*%
X138430000Y-127000000D03*
%TD*%
D19*
%TO.P,R17,1*%
%TO.N,Net-(R17-Pad1)*%
X93980000Y-69215000D03*
D17*
%TO.P,R17,2*%
%TO.N,VCC*%
X83820000Y-69215000D03*
%TD*%
D22*
%TO.P,P4,1,VBUS*%
%TO.N,VCC*%
X90805000Y-46355000D03*
%TO.P,P4,2,D-*%
%TO.N,Net-(P4-Pad2)*%
X88265000Y-46355000D03*
%TO.P,P4,3,D+*%
%TO.N,Net-(P4-Pad3)*%
X86235000Y-46355000D03*
%TO.P,P4,4,GND*%
%TO.N,GND*%
X83695000Y-46355000D03*
D23*
%TO.P,P4,5,shield*%
%TO.N,unconnected-(P4-Pad5)*%
X94365000Y-43685000D03*
X80645000Y-43685000D03*
%TD*%
D10*
%TO.P,A3,1,1*%
%TO.N,unconnected-(A3-Pad1)*%
X218510000Y-85805000D03*
D11*
%TO.P,A3,2,2*%
%TO.N,Net-(A3-Pad2)*%
X218510000Y-88345000D03*
%TO.P,A3,3,3*%
%TO.N,RX*%
X218510000Y-90885000D03*
%TD*%
D19*
%TO.P,R13,1*%
%TO.N,Net-(C18-Pad2)*%
X151765000Y-99568000D03*
D17*
%TO.P,R13,2*%
%TO.N,Net-(R13-Pad2)*%
X161925000Y-99568000D03*
%TD*%
D10*
%TO.P,P1,1,P1*%
%TO.N,unconnected-(P1-Pad1)*%
X228530000Y-67000000D03*
D11*
%TO.P,P1,2,P2*%
%TO.N,PHI2*%
X231070000Y-67000000D03*
%TO.P,P1,3,P3*%
%TO.N,RESET*%
X228530000Y-69540000D03*
%TO.P,P1,4,P4*%
%TO.N,SYNC*%
X231070000Y-69540000D03*
%TO.P,P1,5,P5*%
%TO.N,NMI*%
X228530000Y-72080000D03*
%TO.P,P1,6,P6*%
%TO.N,unconnected-(P1-Pad6)*%
X231070000Y-72080000D03*
%TO.P,P1,7,P7*%
%TO.N,IRQ*%
X228530000Y-74620000D03*
%TO.P,P1,8,P8*%
%TO.N,PHI1*%
X231070000Y-74620000D03*
%TO.P,P1,9,P9*%
%TO.N,RDY*%
X228530000Y-77160000D03*
%TO.P,P1,10,P10*%
%TO.N,D7*%
X231070000Y-77160000D03*
%TO.P,P1,11,P11*%
%TO.N,D6*%
X228530000Y-79700000D03*
%TO.P,P1,12,P12*%
%TO.N,D5*%
X231070000Y-79700000D03*
%TO.P,P1,13,P13*%
%TO.N,D4*%
X228530000Y-82240000D03*
%TO.P,P1,14,P14*%
%TO.N,D3*%
X231070000Y-82240000D03*
%TO.P,P1,15,P15*%
%TO.N,D2*%
X228530000Y-84780000D03*
%TO.P,P1,16,P16*%
%TO.N,D1*%
X231070000Y-84780000D03*
%TO.P,P1,17,P17*%
%TO.N,D0*%
X228530000Y-87320000D03*
%TO.P,P1,18,P18*%
%TO.N,RW*%
X231070000Y-87320000D03*
%TO.P,P1,19,P19*%
%TO.N,unconnected-(P1-Pad19)*%
X228530000Y-89860000D03*
%TO.P,P1,20,P20*%
%TO.N,unconnected-(P1-Pad20)*%
X231070000Y-89860000D03*
%TO.P,P1,21,P21*%
%TO.N,unconnected-(P1-Pad21)*%
X228530000Y-92400000D03*
%TO.P,P1,22,P22*%
%TO.N,CLOCK*%
X231070000Y-92400000D03*
%TO.P,P1,23,P23*%
%TO.N,A15*%
X228530000Y-94940000D03*
%TO.P,P1,24,P24*%
%TO.N,A14*%
X231070000Y-94940000D03*
%TO.P,P1,25,P25*%
%TO.N,A13*%
X228530000Y-97480000D03*
%TO.P,P1,26,P26*%
%TO.N,A12*%
X231070000Y-97480000D03*
%TO.P,P1,27,P27*%
%TO.N,A11*%
X228530000Y-100020000D03*
%TO.P,P1,28,P28*%
%TO.N,A10*%
X231070000Y-100020000D03*
%TO.P,P1,29,P29*%
%TO.N,A9*%
X228530000Y-102560000D03*
%TO.P,P1,30,P30*%
%TO.N,A8*%
X231070000Y-102560000D03*
%TO.P,P1,31,P31*%
%TO.N,A7*%
X228530000Y-105100000D03*
%TO.P,P1,32,P32*%
%TO.N,A6*%
X231070000Y-105100000D03*
%TO.P,P1,33,P33*%
%TO.N,A5*%
X228530000Y-107640000D03*
%TO.P,P1,34,P34*%
%TO.N,A4*%
X231070000Y-107640000D03*
%TO.P,P1,35,P35*%
%TO.N,A3*%
X228530000Y-110180000D03*
%TO.P,P1,36,P36*%
%TO.N,A2*%
X231070000Y-110180000D03*
%TO.P,P1,37,P37*%
%TO.N,A1*%
X228530000Y-112720000D03*
%TO.P,P1,38,P38*%
%TO.N,A0*%
X231070000Y-112720000D03*
%TO.P,P1,39,P39*%
%TO.N,GND*%
X228530000Y-115260000D03*
%TO.P,P1,40,P40*%
X231070000Y-115260000D03*
%TO.P,P1,41,P41*%
%TO.N,Vin*%
X228530000Y-117800000D03*
%TO.P,P1,42,P42*%
%TO.N,unconnected-(P1-Pad42)*%
X231070000Y-117800000D03*
%TO.P,P1,43,P43*%
%TO.N,VCC*%
X228530000Y-120340000D03*
%TO.P,P1,44,P44*%
%TO.N,unconnected-(P1-Pad44)*%
X231070000Y-120340000D03*
%TD*%
D24*
%TO.P,CON1,1*%
%TO.N,Net-(CON1-Pad1)*%
X223901000Y-47625000D03*
D25*
%TO.P,CON1,2*%
%TO.N,GND*%
X223901000Y-41625000D03*
D26*
%TO.P,CON1,3*%
%TO.N,unconnected-(CON1-Pad3)*%
X219201000Y-44625000D03*
%TD*%
D16*
%TO.P,U6,1,GND*%
%TO.N,GND*%
X83460000Y-53390000D03*
D17*
%TO.P,U6,2,TR*%
%TO.N,Net-(C1-Pad1)*%
X83460000Y-55930000D03*
%TO.P,U6,3,Q*%
%TO.N,Net-(U5-Pad3)*%
X83460000Y-58470000D03*
%TO.P,U6,4,R*%
%TO.N,VCC*%
X83460000Y-61010000D03*
%TO.P,U6,5,CV*%
%TO.N,unconnected-(U6-Pad5)*%
X91080000Y-61010000D03*
%TO.P,U6,6,THR*%
%TO.N,Net-(C3-Pad1)*%
X91080000Y-58470000D03*
%TO.P,U6,7,DIS*%
X91080000Y-55930000D03*
%TO.P,U6,8,VCC*%
%TO.N,VCC*%
X91080000Y-53390000D03*
%TD*%
D19*
%TO.P,C15,1*%
%TO.N,GND*%
X220110000Y-54070000D03*
%TO.P,C15,2*%
%TO.N,Net-(A4-Pad3)*%
X225110000Y-54070000D03*
%TD*%
%TO.P,C16,1*%
%TO.N,GND*%
X220110000Y-61170000D03*
%TO.P,C16,2*%
%TO.N,Vin*%
X225110000Y-61170000D03*
%TD*%
D10*
%TO.P,A4,1,1*%
%TO.N,Net-(A4-Pad1)*%
X218510000Y-71955000D03*
D11*
%TO.P,A4,2,2*%
%TO.N,VCC*%
X218510000Y-74495000D03*
%TO.P,A4,3,3*%
%TO.N,Net-(A4-Pad3)*%
X218510000Y-77035000D03*
%TD*%
D10*
%TO.P,JP2,1,1*%
%TO.N,Vin*%
X209125000Y-51150000D03*
D11*
%TO.P,JP2,2,2*%
%TO.N,Net-(CON1-Pad1)*%
X211665000Y-51150000D03*
%TD*%
D27*
%TO.P,U10,1,IN*%
%TO.N,Vin*%
X233275000Y-50900000D03*
D28*
%TO.P,U10,2,GND*%
%TO.N,GND*%
X233275000Y-53440000D03*
%TO.P,U10,3,OUT*%
%TO.N,Net-(A4-Pad3)*%
X233275000Y-55980000D03*
%TD*%
D10*
%TO.P,JP3,1,1*%
%TO.N,VCC*%
X51200000Y-60275000D03*
D11*
%TO.P,JP3,2,2*%
%TO.N,CLR_SCR*%
X51200000Y-62815000D03*
%TD*%
D19*
%TO.P,C2,1*%
%TO.N,OUT_DA*%
X171600000Y-87975000D03*
%TO.P,C2,2*%
%TO.N,Net-(C2-Pad2)*%
X176600000Y-87975000D03*
%TD*%
D20*
%TO.P,SW2,1,A*%
%TO.N,CLR_SCR*%
X57525000Y-40600000D03*
X64025000Y-40600000D03*
%TO.P,SW2,2,B*%
%TO.N,VCC*%
X57525000Y-45100000D03*
X64025000Y-45100000D03*
%TD*%
D19*
%TO.P,R18,1*%
%TO.N,CLR_SCR*%
X191800000Y-52425000D03*
D17*
%TO.P,R18,2*%
%TO.N,GND*%
X201960000Y-52425000D03*
%TD*%
D29*
%TO.N,VCC*%
X155419900Y-110763100D03*
%TO.N,GND*%
X110532400Y-91131600D03*
%TO.N,A14_W*%
X144004000Y-87754100D03*
%TO.N,OUT_DA*%
X68221100Y-89318300D03*
%TO.N,Net-(A3-Pad2)*%
X206973500Y-78286400D03*
%TO.N,KBD_READY*%
X152644000Y-70536700D03*
%TO.N,KBD_STROBE*%
X133889000Y-81274700D03*
X151243900Y-80455400D03*
%TO.N,OUT_RDA*%
X90647800Y-67534800D03*
%TO.N,Net-(C2-Pad2)*%
X185858600Y-73021600D03*
%TO.N,CS_ROM*%
X174481000Y-95743200D03*
%TO.N,A15*%
X217373100Y-109789100D03*
X224475000Y-94900000D03*
X115015300Y-104464700D03*
%TO.N,CLOCK*%
X183129000Y-95195600D03*
X97063500Y-81820400D03*
%TO.N,Net-(R1-Pad1)*%
X107593100Y-83832500D03*
%TO.N,RESET*%
X98421600Y-108602200D03*
%TO.N,RDY*%
X206881000Y-83212400D03*
%TO.N,IRQ*%
X204376100Y-82541700D03*
%TO.N,NMI*%
X185500700Y-82523700D03*
%TO.N,Net-(R10-Pad1)*%
X154074600Y-110634900D03*
%TO.N,A12*%
X216426700Y-78489600D03*
X135150400Y-78663000D03*
%TO.N,A13*%
X143705300Y-96465400D03*
%TO.N,A14*%
X89426300Y-115165200D03*
%TO.N,D7*%
X133336000Y-83461500D03*
X130786300Y-114377900D03*
%TO.N,D6*%
X129675600Y-84522600D03*
X127966700Y-111158400D03*
%TO.N,D5*%
X205868200Y-84839600D03*
X127074200Y-110599300D03*
%TO.N,A0*%
X151242900Y-84094200D03*
%TO.N,D4*%
X123282900Y-110233300D03*
%TO.N,A1*%
X148232300Y-82918400D03*
%TO.N,D3*%
X107718100Y-115790600D03*
%TO.N,A2*%
X145471900Y-82118000D03*
%TO.N,D0*%
X186214300Y-90244500D03*
%TO.N,A5*%
X218668600Y-106133000D03*
%TO.N,A7*%
X83850900Y-96270300D03*
X142363000Y-101873000D03*
%TO.N,Net-(C17-Pad1)*%
X191450000Y-118975000D03*
%TO.N,Net-(U5-Pad1)*%
X182739900Y-87125800D03*
%TO.N,KBD_D0*%
X105405300Y-101154700D03*
%TO.N,OUT_D1*%
X99263200Y-98303400D03*
%TO.N,OUT_D2*%
X93929600Y-71051500D03*
%TO.N,OUT_D3*%
X102284900Y-97846100D03*
%TO.N,OUT_D4*%
X105382900Y-97381300D03*
%TO.N,OUT_D5*%
X84601100Y-102821100D03*
X116274000Y-66532300D03*
%TO.N,OUT_D6*%
X149247900Y-107847900D03*
%TO.N,CLR_SCR*%
X188025000Y-37725000D03*
%TO.N,Net-(R15-Pad2)*%
X189512700Y-95564800D03*
%TO.N,PHI1*%
X206275600Y-82545200D03*
%TO.N,SYNC*%
X185568900Y-81723300D03*
%TO.N,Net-(J7-Pad13)*%
X156747400Y-108502500D03*
%TO.N,Net-(P2-Pad1)*%
X155725400Y-108998200D03*
%TO.N,Net-(P4-Pad2)*%
X94182100Y-96786800D03*
%TO.N,Net-(P4-Pad3)*%
X92013900Y-98934900D03*
%TO.N,Net-(R11-Pad2)*%
X173925900Y-125824600D03*
%TO.N,Net-(R12-Pad1)*%
X156140800Y-99201500D03*
%TO.N,Net-(R14-Pad2)*%
X192186300Y-95526000D03*
%TO.N,Net-(R17-Pad1)*%
X91397200Y-99570000D03*
%TO.N,Net-(U3-Pad11)*%
X182983300Y-96446300D03*
%TD*%
D30*
%TO.N,VCC*%
X74433800Y-70346200D02*
X67806200Y-70346200D01*
X75565000Y-69215000D02*
X74433800Y-70346200D01*
X83460000Y-61010000D02*
X84585300Y-61010000D01*
X83474400Y-125874700D02*
X84599700Y-127000000D01*
X203750000Y-79515000D02*
X202624700Y-79515000D01*
X206290000Y-66815000D02*
X212079500Y-66815000D01*
X104060000Y-55800000D02*
X106680000Y-53180000D01*
X206652500Y-79515000D02*
X204875300Y-79515000D01*
X161925000Y-76327000D02*
X160799700Y-76327000D01*
X106680000Y-58420000D02*
X104060000Y-55800000D01*
X89535000Y-127000000D02*
X90660300Y-128125300D01*
X57150000Y-104140000D02*
X57150000Y-103014700D01*
X218510000Y-74495000D02*
X217334700Y-74495000D01*
X116840000Y-64770000D02*
X117965300Y-64770000D01*
X90959000Y-54357700D02*
X91080000Y-54357700D01*
X91080000Y-53390000D02*
X91080000Y-54357700D01*
X117965300Y-64770000D02*
X130601000Y-64770000D01*
X84585300Y-61010000D02*
X84585300Y-60731400D01*
X85725000Y-127000000D02*
X89535000Y-127000000D01*
X162487700Y-76327000D02*
X161925000Y-76327000D01*
X213400000Y-61350000D02*
X199040000Y-46990000D01*
X214527600Y-62477600D02*
X213400000Y-61350000D01*
X163050300Y-76327000D02*
X165318700Y-78595400D01*
X84585300Y-60731400D02*
X90959000Y-54357700D01*
X130601000Y-64770000D02*
X134764700Y-60606300D01*
X156037800Y-111381000D02*
X162502600Y-111381000D01*
X214527600Y-64366900D02*
X214527600Y-62477600D01*
X104060000Y-55800000D02*
X99060000Y-55800000D01*
X67806200Y-70346200D02*
X66675000Y-69215000D01*
X58275300Y-70260300D02*
X58275300Y-101889400D01*
X174044000Y-78595400D02*
X176294800Y-76344600D01*
X199735600Y-76344600D02*
X202624700Y-79233700D01*
X84945300Y-69215000D02*
X88755300Y-73025000D01*
X203750000Y-79515000D02*
X204875300Y-79515000D01*
X155419900Y-110763100D02*
X156037800Y-111381000D01*
X106334400Y-128125300D02*
X107459700Y-127000000D01*
X83820000Y-69215000D02*
X84945300Y-69215000D01*
X165318700Y-78595400D02*
X174044000Y-78595400D01*
X162487700Y-76327000D02*
X163050300Y-76327000D01*
X162502600Y-111381000D02*
X170324700Y-119203100D01*
X58275300Y-101889400D02*
X57150000Y-103014700D01*
X88755300Y-73025000D02*
X99060000Y-73025000D01*
X211130000Y-74495000D02*
X211130000Y-74110000D01*
X160799700Y-76327000D02*
X159674400Y-75201700D01*
X91080000Y-54357700D02*
X97617700Y-54357700D01*
X97617700Y-54357700D02*
X99060000Y-55800000D01*
X217334700Y-74495000D02*
X211130000Y-74495000D01*
X106680000Y-53180000D02*
X106680000Y-52070000D01*
X171450000Y-119380000D02*
X170324700Y-119380000D01*
X108585000Y-127000000D02*
X107459700Y-127000000D01*
X207670400Y-77954600D02*
X207670400Y-78497100D01*
X57230000Y-69215000D02*
X58275300Y-70260300D01*
X85725000Y-127000000D02*
X84599700Y-127000000D01*
X105410000Y-80645000D02*
X98425000Y-80645000D01*
X135190800Y-75201700D02*
X131109100Y-71120000D01*
X170324700Y-119203100D02*
X170324700Y-119380000D01*
X135890000Y-60325000D02*
X134764700Y-60325000D01*
X207670400Y-78497100D02*
X206652500Y-79515000D01*
X202624700Y-79233700D02*
X202624700Y-79515000D01*
X159674400Y-75201700D02*
X135190800Y-75201700D01*
X212079500Y-66815000D02*
X214527600Y-64366900D01*
X72880300Y-127000000D02*
X74005600Y-125874700D01*
X71755000Y-127000000D02*
X72880300Y-127000000D01*
X199040000Y-46990000D02*
X191770000Y-46990000D01*
X211130000Y-74495000D02*
X207670400Y-77954600D01*
X131109100Y-71120000D02*
X116840000Y-71120000D01*
X134764700Y-60606300D02*
X134764700Y-60325000D01*
X176294800Y-76344600D02*
X199735600Y-76344600D01*
X90660300Y-128125300D02*
X106334400Y-128125300D01*
X74005600Y-125874700D02*
X83474400Y-125874700D01*
%TO.N,A13_W*%
X139844700Y-92428700D02*
X137658600Y-90242600D01*
X107236500Y-84360300D02*
X100775600Y-84360300D01*
X140970000Y-92710000D02*
X139844700Y-92710000D01*
X137658600Y-90242600D02*
X113118800Y-90242600D01*
X98425000Y-83185000D02*
X99600300Y-83185000D01*
X113118800Y-90242600D02*
X107236500Y-84360300D01*
X100775600Y-84360300D02*
X99600300Y-83185000D01*
X139844700Y-92710000D02*
X139844700Y-92428700D01*
%TO.N,GND*%
X123460600Y-44943400D02*
X127411600Y-44943400D01*
X230095000Y-56620000D02*
X233275000Y-53440000D01*
X204169000Y-63850000D02*
X199795300Y-59476300D01*
X199295800Y-101145300D02*
X200139700Y-100301400D01*
X217630300Y-107904800D02*
X224985500Y-115260000D01*
X99060000Y-53300000D02*
X101415400Y-50944600D01*
X193086700Y-78389700D02*
X194160800Y-78389700D01*
X170180000Y-127000000D02*
X171355300Y-127000000D01*
X182880000Y-69850000D02*
X173845300Y-69850000D01*
X224985500Y-115260000D02*
X228530000Y-115260000D01*
X125730000Y-67945000D02*
X123190000Y-67945000D01*
X201265000Y-100020000D02*
X200139700Y-100020000D01*
X128270000Y-67945000D02*
X129395300Y-67945000D01*
X125219500Y-61450300D02*
X124597900Y-60828700D01*
X197255300Y-79796400D02*
X198099200Y-80640300D01*
X146530000Y-51240000D02*
X145354700Y-51240000D01*
X194770300Y-100020000D02*
X194770300Y-100238300D01*
X127411600Y-44943400D02*
X128540000Y-43815000D01*
X200084700Y-79796400D02*
X200084700Y-79515000D01*
X187930000Y-127960000D02*
X198090000Y-127960000D01*
X166514700Y-74930000D02*
X163897900Y-72313200D01*
X186050300Y-71895000D02*
X188510000Y-71895000D01*
X192175300Y-79515000D02*
X192175300Y-79301100D01*
X167640000Y-74930000D02*
X168765300Y-74930000D01*
X109125400Y-50944600D02*
X118235000Y-41835000D01*
X199795300Y-59476300D02*
X199795300Y-59195000D01*
X81604000Y-46355000D02*
X81604000Y-53390000D01*
X213965000Y-100020000D02*
X212839700Y-100020000D01*
X122815000Y-44297800D02*
X123460600Y-44943400D01*
X212839700Y-100301300D02*
X211995700Y-101145300D01*
X79960000Y-53390000D02*
X72390000Y-60960000D01*
X186660000Y-126690000D02*
X187930000Y-127960000D01*
X132224700Y-61450300D02*
X125219500Y-61450300D01*
X182880000Y-69850000D02*
X184005300Y-69850000D01*
X195004700Y-79233600D02*
X195004700Y-79515000D01*
X72390000Y-60960000D02*
X64770000Y-60960000D01*
X118235000Y-41835000D02*
X120525000Y-41835000D01*
X193645000Y-100020000D02*
X194770300Y-100020000D01*
X222660000Y-56620000D02*
X230095000Y-56620000D01*
X83695000Y-46355000D02*
X81604000Y-46355000D01*
X198099200Y-80640300D02*
X199240800Y-80640300D01*
X173845300Y-69850000D02*
X168765300Y-74930000D01*
X171355300Y-127000000D02*
X171665300Y-126690000D01*
X167640000Y-74930000D02*
X166514700Y-74930000D01*
X196130000Y-59195000D02*
X198670000Y-59195000D01*
X99060000Y-70525000D02*
X101640000Y-67945000D01*
X98425000Y-85725000D02*
X105410000Y-85725000D01*
X125730000Y-67945000D02*
X128270000Y-67945000D01*
X212839700Y-100020000D02*
X212839700Y-100301300D01*
X191050000Y-79515000D02*
X192175300Y-79515000D01*
X201210000Y-79515000D02*
X200084700Y-79515000D01*
X196130000Y-79515000D02*
X195004700Y-79515000D01*
X133350000Y-60325000D02*
X132224700Y-61450300D01*
X192175300Y-79301100D02*
X193086700Y-78389700D01*
X199240800Y-80640300D02*
X200084700Y-79796400D01*
X184005300Y-69850000D02*
X186050300Y-71895000D01*
X127925000Y-51240000D02*
X126460000Y-52705000D01*
X217630300Y-107640000D02*
X217630300Y-107904800D01*
X196130000Y-79515000D02*
X197255300Y-79515000D01*
X133576100Y-72313200D02*
X129395300Y-68132400D01*
X198670000Y-59195000D02*
X199795300Y-59195000D01*
X211995700Y-101145300D02*
X203234200Y-101145300D01*
X122815000Y-41835000D02*
X122815000Y-44297800D01*
X81604000Y-53390000D02*
X83460000Y-53390000D01*
X213400000Y-63850000D02*
X204169000Y-63850000D01*
X203234200Y-101145300D02*
X202390300Y-100301400D01*
X81604000Y-53390000D02*
X79960000Y-53390000D01*
X75275000Y-42025000D02*
X75275000Y-40575000D01*
X101415400Y-50944600D02*
X109125400Y-50944600D01*
X200139700Y-100301400D02*
X200139700Y-100020000D01*
X127925000Y-45456800D02*
X127411600Y-44943400D01*
X79605000Y-46355000D02*
X75275000Y-42025000D01*
X123190000Y-67945000D02*
X122064700Y-67945000D01*
X81604000Y-46355000D02*
X79605000Y-46355000D01*
X197255300Y-79515000D02*
X197255300Y-79796400D01*
X120525000Y-41835000D02*
X122815000Y-41835000D01*
X220110000Y-54070000D02*
X222660000Y-56620000D01*
X127925000Y-51240000D02*
X127925000Y-45456800D01*
X163897900Y-72313200D02*
X133576100Y-72313200D01*
X202390300Y-100301400D02*
X202390300Y-100020000D01*
X171665300Y-126690000D02*
X186660000Y-126690000D01*
X195677300Y-101145300D02*
X199295800Y-101145300D01*
X105410000Y-85725000D02*
X105410000Y-86900300D01*
X124597900Y-60828700D02*
X124597900Y-54567100D01*
X194160800Y-78389700D02*
X195004700Y-79233600D01*
X129395300Y-68132400D02*
X129395300Y-67945000D01*
X228530000Y-115260000D02*
X231070000Y-115260000D01*
X216505000Y-107640000D02*
X217630300Y-107640000D01*
X110532400Y-91131600D02*
X106301100Y-86900300D01*
X124597900Y-54567100D02*
X126460000Y-52705000D01*
X201265000Y-100020000D02*
X202390300Y-100020000D01*
X194770300Y-100238300D02*
X195677300Y-101145300D01*
X214600000Y-126650000D02*
X206980000Y-126650000D01*
X101640000Y-67945000D02*
X122064700Y-67945000D01*
X106301100Y-86900300D02*
X105410000Y-86900300D01*
X145354700Y-51240000D02*
X127925000Y-51240000D01*
%TO.N,A14_W*%
X118106200Y-87754100D02*
X144004000Y-87754100D01*
X106585300Y-83185000D02*
X113537100Y-83185000D01*
X113537100Y-83185000D02*
X118106200Y-87754100D01*
X105410000Y-83185000D02*
X106585300Y-83185000D01*
%TO.N,OUT_DA*%
X170145900Y-86520900D02*
X118448600Y-86520900D01*
X118448600Y-86520900D02*
X111363800Y-79436100D01*
X111363800Y-79436100D02*
X96955700Y-79436100D01*
X171600000Y-87975000D02*
X170145900Y-86520900D01*
X73667700Y-83871700D02*
X68221100Y-89318300D01*
X92520100Y-83871700D02*
X73667700Y-83871700D01*
X96955700Y-79436100D02*
X92520100Y-83871700D01*
%TO.N,Net-(D1-Pad2)*%
X201930000Y-41275000D02*
X210185000Y-41275000D01*
X210185000Y-41275000D02*
X211455000Y-42545000D01*
%TO.N,Net-(A3-Pad2)*%
X203617100Y-74930000D02*
X182880000Y-74930000D01*
X206973500Y-78286400D02*
X203617100Y-74930000D01*
%TO.N,TX*%
X177182700Y-82042000D02*
X163050300Y-82042000D01*
X182880000Y-77470000D02*
X181754700Y-77470000D01*
X181754700Y-77470000D02*
X177182700Y-82042000D01*
X161925000Y-82042000D02*
X163050300Y-82042000D01*
%TO.N,KBD_READY*%
X169727400Y-67310000D02*
X182880000Y-67310000D01*
X152644000Y-70536700D02*
X155523300Y-70536700D01*
X157622600Y-68437400D02*
X168600000Y-68437400D01*
X155523300Y-70536700D02*
X157622600Y-68437400D01*
X168600000Y-68437400D02*
X169727400Y-67310000D01*
%TO.N,KBD_STROBE*%
X151243900Y-80455400D02*
X150424600Y-81274700D01*
X150424600Y-81274700D02*
X133889000Y-81274700D01*
%TO.N,OUT_RDA*%
X90647800Y-67534800D02*
X92287200Y-65895400D01*
X175549300Y-65895400D02*
X181754700Y-59690000D01*
X182880000Y-59690000D02*
X181754700Y-59690000D01*
X92287200Y-65895400D02*
X175549300Y-65895400D01*
%TO.N,P_RESET*%
X135658200Y-71862900D02*
X131935300Y-68140000D01*
X165987600Y-71862900D02*
X135658200Y-71862900D01*
X130810000Y-67945000D02*
X131935300Y-67945000D01*
X166514700Y-72390000D02*
X165987600Y-71862900D01*
X167640000Y-72390000D02*
X166514700Y-72390000D01*
X131935300Y-68140000D02*
X131935300Y-67945000D01*
%TO.N,Net-(A4-Pad1)*%
X167640000Y-69850000D02*
X168765300Y-69850000D01*
X218510000Y-71955000D02*
X217334700Y-71955000D01*
X214102100Y-68722400D02*
X217334700Y-71955000D01*
X168765300Y-69850000D02*
X169892900Y-68722400D01*
X169892900Y-68722400D02*
X214102100Y-68722400D01*
%TO.N,Net-(C1-Pad1)*%
X61675000Y-60500000D02*
X61675000Y-49925000D01*
X66525000Y-45075000D02*
X68775000Y-45075000D01*
X61675000Y-49925000D02*
X66525000Y-45075000D01*
X117965300Y-58891100D02*
X117965300Y-54320600D01*
X103428500Y-60321500D02*
X116534900Y-60321500D01*
X116534900Y-60321500D02*
X117965300Y-58891100D01*
X99060000Y-64690000D02*
X103428500Y-60321500D01*
X51200000Y-69700000D02*
X52475000Y-69700000D01*
X117965300Y-54320600D02*
X116840000Y-53195300D01*
X52475000Y-69700000D02*
X61675000Y-60500000D01*
X116840000Y-52070000D02*
X116840000Y-53195300D01*
%TO.N,Net-(C2-Pad2)*%
X192334700Y-72234500D02*
X191547600Y-73021600D01*
X200084700Y-71681400D02*
X198688900Y-70285600D01*
X193552700Y-70285600D02*
X192334700Y-71503600D01*
X192334700Y-71503600D02*
X192334700Y-72234500D01*
X198688900Y-70285600D02*
X193552700Y-70285600D01*
X191547600Y-73021600D02*
X185858600Y-73021600D01*
X200084700Y-71895000D02*
X200084700Y-71681400D01*
X201210000Y-71895000D02*
X200084700Y-71895000D01*
%TO.N,CS_ROM*%
X133627300Y-94683300D02*
X131935300Y-92991300D01*
X148236100Y-94683300D02*
X133627300Y-94683300D01*
X131935300Y-92991300D02*
X131935300Y-92710000D01*
X174481000Y-95743200D02*
X149296000Y-95743200D01*
X130810000Y-92710000D02*
X131935300Y-92710000D01*
X149296000Y-95743200D02*
X148236100Y-94683300D01*
%TO.N,A15*%
X76055300Y-92886900D02*
X76055300Y-92710000D01*
X139602900Y-120552900D02*
X149079200Y-120552900D01*
X228530000Y-94940000D02*
X224456600Y-94940000D01*
X78807100Y-95638700D02*
X76055300Y-92886900D01*
X69850000Y-92710000D02*
X70975300Y-92710000D01*
X74930000Y-92710000D02*
X76055300Y-92710000D01*
X114641900Y-104464700D02*
X105815900Y-95638700D01*
X71828900Y-93845000D02*
X72856300Y-93845000D01*
X161782400Y-118231000D02*
X162704600Y-119153200D01*
X70975300Y-92710000D02*
X70975300Y-92991400D01*
X149860000Y-119772100D02*
X149860000Y-119049300D01*
X149860000Y-119049300D02*
X150678300Y-118231000D01*
X149079200Y-120552900D02*
X149860000Y-119772100D01*
X202788000Y-120567300D02*
X213566200Y-109789100D01*
X213566200Y-109789100D02*
X217373100Y-109789100D01*
X72856300Y-93845000D02*
X73991300Y-92710000D01*
X163411500Y-120567300D02*
X202788000Y-120567300D01*
X70975300Y-92991400D02*
X71828900Y-93845000D01*
X162704600Y-119860400D02*
X163411500Y-120567300D01*
X74930000Y-92710000D02*
X73991300Y-92710000D01*
X115015300Y-104464700D02*
X114641900Y-104464700D01*
X138430000Y-119380000D02*
X139602900Y-120552900D01*
X150678300Y-118231000D02*
X161782400Y-118231000D01*
X162704600Y-119153200D02*
X162704600Y-119860400D01*
X105815900Y-95638700D02*
X78807100Y-95638700D01*
%TO.N,CLOCK*%
X144629300Y-87495000D02*
X144629300Y-87962200D01*
X182601000Y-94667600D02*
X183129000Y-95195600D01*
X97063500Y-81820400D02*
X113032700Y-81820400D01*
X205337200Y-93575300D02*
X202722400Y-96190100D01*
X229894700Y-92767400D02*
X229086800Y-93575300D01*
X144629300Y-87962200D02*
X151334700Y-94667600D01*
X229086800Y-93575300D02*
X205337200Y-93575300D01*
X183253900Y-95195600D02*
X183129000Y-95195600D01*
X113032700Y-81820400D02*
X118341100Y-87128800D01*
X184248400Y-96190100D02*
X183253900Y-95195600D01*
X202722400Y-96190100D02*
X184248400Y-96190100D01*
X118341100Y-87128800D02*
X144263100Y-87128800D01*
X229894700Y-92400000D02*
X229894700Y-92767400D01*
X151334700Y-94667600D02*
X182601000Y-94667600D01*
X64770000Y-53340000D02*
X72390000Y-53340000D01*
X231070000Y-92400000D02*
X229894700Y-92400000D01*
X144263100Y-87128800D02*
X144629300Y-87495000D01*
%TO.N,Net-(R1-Pad1)*%
X138737800Y-88781800D02*
X112542400Y-88781800D01*
X112542400Y-88781800D02*
X107593100Y-83832500D01*
X142384700Y-92428700D02*
X138737800Y-88781800D01*
X142384700Y-92710000D02*
X142384700Y-92428700D01*
X143510000Y-92710000D02*
X142384700Y-92710000D01*
%TO.N,RESET*%
X175404700Y-119380000D02*
X175404700Y-119098700D01*
X228530000Y-69540000D02*
X227354700Y-69540000D01*
X197277100Y-73042100D02*
X196130000Y-71895000D01*
X166336200Y-110030200D02*
X159056200Y-110030200D01*
X176530000Y-119380000D02*
X175404700Y-119380000D01*
X223764300Y-73130400D02*
X212665200Y-73130400D01*
X227354700Y-69540000D02*
X223764300Y-73130400D01*
X153563300Y-108602200D02*
X98421600Y-108602200D01*
X212475400Y-72940600D02*
X210084400Y-72940600D01*
X209982900Y-73042100D02*
X197277100Y-73042100D01*
X159056200Y-110030200D02*
X158655700Y-109629700D01*
X210084400Y-72940600D02*
X209982900Y-73042100D01*
X212665200Y-73130400D02*
X212475400Y-72940600D01*
X175404700Y-119098700D02*
X166336200Y-110030200D01*
X158655700Y-109629700D02*
X154590800Y-109629700D01*
X154590800Y-109629700D02*
X153563300Y-108602200D01*
%TO.N,RDY*%
X207156300Y-82937100D02*
X206881000Y-83212400D01*
X212103000Y-82937100D02*
X207156300Y-82937100D01*
X213628200Y-81411900D02*
X212103000Y-82937100D01*
X227354700Y-77160000D02*
X223102900Y-81411800D01*
X228530000Y-77160000D02*
X227354700Y-77160000D01*
X223102900Y-81411900D02*
X213628200Y-81411900D01*
X223102900Y-81411800D02*
X223102900Y-81411900D01*
%TO.N,IRQ*%
X205188000Y-81837300D02*
X204483600Y-82541700D01*
X228530000Y-74620000D02*
X227354700Y-74620000D01*
X204483600Y-82541700D02*
X204376100Y-82541700D01*
X211929000Y-81837300D02*
X205188000Y-81837300D01*
X213650800Y-80115500D02*
X211929000Y-81837300D01*
X227354700Y-74620000D02*
X221859200Y-80115500D01*
X221859200Y-80115500D02*
X213650800Y-80115500D01*
%TO.N,NMI*%
X227354700Y-72080000D02*
X219769600Y-79665100D01*
X204095600Y-81916400D02*
X203488300Y-82523700D01*
X205164900Y-81138800D02*
X204387300Y-81916400D01*
X219769600Y-79665100D02*
X210685100Y-79665100D01*
X203488300Y-82523700D02*
X185500700Y-82523700D01*
X228530000Y-72080000D02*
X227354700Y-72080000D01*
X204387300Y-81916400D02*
X204095600Y-81916400D01*
X209211400Y-81138800D02*
X205164900Y-81138800D01*
X210685100Y-79665100D02*
X209211400Y-81138800D01*
%TO.N,Net-(R10-Pad1)*%
X161220300Y-117780600D02*
X154074600Y-110634900D01*
X166370000Y-119380000D02*
X165244700Y-119380000D01*
X165244700Y-119380000D02*
X165244700Y-119098700D01*
X165244700Y-119098700D02*
X163926600Y-117780600D01*
X163926600Y-117780600D02*
X161220300Y-117780600D01*
%TO.N,A12*%
X134764600Y-77282100D02*
X134764600Y-78277200D01*
X134764600Y-78277200D02*
X135150400Y-78663000D01*
X216426700Y-78489600D02*
X209550700Y-78489600D01*
X141473000Y-78663000D02*
X135150400Y-78663000D01*
X179429400Y-81098000D02*
X177359800Y-83167600D01*
X144635300Y-78173400D02*
X144635300Y-77470000D01*
X87630000Y-77470000D02*
X88755300Y-77470000D01*
X203003300Y-81098000D02*
X179429400Y-81098000D01*
X90218800Y-75303100D02*
X107810400Y-75303100D01*
X204215800Y-80647800D02*
X203453500Y-80647800D01*
X156376000Y-79045500D02*
X145507400Y-79045500D01*
X142384700Y-77751300D02*
X141473000Y-78663000D01*
X109530400Y-73583100D02*
X131065600Y-73583100D01*
X177359800Y-83167600D02*
X160498100Y-83167600D01*
X204669600Y-80194000D02*
X204215800Y-80647800D01*
X107810400Y-75303100D02*
X109530400Y-73583100D01*
X143510000Y-77470000D02*
X142384700Y-77470000D01*
X203453500Y-80647800D02*
X203003300Y-81098000D01*
X88755300Y-76766600D02*
X90218800Y-75303100D01*
X131065600Y-73583100D02*
X134764600Y-77282100D01*
X207846300Y-80194000D02*
X204669600Y-80194000D01*
X209550700Y-78489600D02*
X207846300Y-80194000D01*
X88755300Y-77470000D02*
X88755300Y-76766600D01*
X145507400Y-79045500D02*
X144635300Y-78173400D01*
X143510000Y-77470000D02*
X144635300Y-77470000D01*
X160498100Y-83167600D02*
X156376000Y-79045500D01*
X142384700Y-77470000D02*
X142384700Y-77751300D01*
%TO.N,A13*%
X85090000Y-92710000D02*
X86215300Y-92710000D01*
X143705300Y-96465400D02*
X144330600Y-97090700D01*
X144330600Y-97090700D02*
X226965400Y-97090700D01*
X87588400Y-94287400D02*
X86215300Y-92914300D01*
X228530000Y-97480000D02*
X227354700Y-97480000D01*
X226965400Y-97090700D02*
X227354700Y-97480000D01*
X108201300Y-96113400D02*
X106375300Y-94287400D01*
X143353300Y-96113400D02*
X108201300Y-96113400D01*
X86215300Y-92914300D02*
X86215300Y-92710000D01*
X106375300Y-94287400D02*
X87588400Y-94287400D01*
X143705300Y-96465400D02*
X143353300Y-96113400D01*
%TO.N,A14*%
X135890000Y-119380000D02*
X134764700Y-119380000D01*
X130831200Y-115165200D02*
X89426300Y-115165200D01*
X134764700Y-119098700D02*
X130831200Y-115165200D01*
X134764700Y-119380000D02*
X134764700Y-119098700D01*
%TO.N,D7*%
X133425300Y-83550800D02*
X133336000Y-83461500D01*
X154340100Y-83462100D02*
X150790900Y-83462100D01*
X184866100Y-83167400D02*
X184415500Y-83618000D01*
X229086800Y-78335300D02*
X228082500Y-78335300D01*
X231070000Y-77160000D02*
X229894700Y-77160000D01*
X122064700Y-92991400D02*
X122064700Y-92710000D01*
X224501100Y-81916700D02*
X213760300Y-81916700D01*
X123190000Y-92710000D02*
X122064700Y-92710000D01*
X150790900Y-83462100D02*
X150702200Y-83550800D01*
X130786300Y-114377900D02*
X135046900Y-114377900D01*
X68724700Y-119380000D02*
X68724700Y-119661400D01*
X66184700Y-119846500D02*
X66184700Y-94960600D01*
X207351400Y-83891700D02*
X206675900Y-83891700D01*
X229894700Y-77527400D02*
X229086800Y-78335300D01*
X154496000Y-83618000D02*
X154340100Y-83462100D01*
X120763200Y-94292900D02*
X122064700Y-92991400D01*
X111275700Y-94292900D02*
X120763200Y-94292900D01*
X135046900Y-114377900D02*
X139844700Y-119175700D01*
X140970000Y-119380000D02*
X139844700Y-119380000D01*
X184415500Y-83618000D02*
X154496000Y-83618000D01*
X150702200Y-83550800D02*
X133425300Y-83550800D01*
X207630600Y-83612500D02*
X207351400Y-83891700D01*
X70221100Y-90642800D02*
X107625600Y-90642800D01*
X68435300Y-92428600D02*
X70221100Y-90642800D01*
X213760300Y-81916700D02*
X212064500Y-83612500D01*
X68435300Y-92710000D02*
X68435300Y-92428600D01*
X107625600Y-90642800D02*
X111275700Y-94292900D01*
X212064500Y-83612500D02*
X207630600Y-83612500D01*
X205951600Y-83167400D02*
X184866100Y-83167400D01*
X229894700Y-77160000D02*
X229894700Y-77527400D01*
X69850000Y-119380000D02*
X68724700Y-119380000D01*
X67310000Y-92710000D02*
X67310000Y-93835300D01*
X67880800Y-120505300D02*
X66843500Y-120505300D01*
X139844700Y-119175700D02*
X139844700Y-119380000D01*
X228082500Y-78335300D02*
X224501100Y-81916700D01*
X66843500Y-120505300D02*
X66184700Y-119846500D01*
X206675900Y-83891700D02*
X205951600Y-83167400D01*
X67310000Y-92710000D02*
X68435300Y-92710000D01*
X68724700Y-119661400D02*
X67880800Y-120505300D01*
X66184700Y-94960600D02*
X67310000Y-93835300D01*
%TO.N,D6*%
X67930100Y-90393900D02*
X68666800Y-90393900D01*
X209492100Y-84381300D02*
X206411500Y-84381300D01*
X129872600Y-84719600D02*
X129675600Y-84522600D01*
X71264700Y-119661300D02*
X69920900Y-121005100D01*
X63644700Y-94960600D02*
X64770000Y-93835300D01*
X206411500Y-84381300D02*
X205684500Y-83654300D01*
X72390000Y-119380000D02*
X71264700Y-119380000D01*
X205684500Y-83654300D02*
X185970000Y-83654300D01*
X185970000Y-83654300D02*
X184904700Y-84719600D01*
X68871300Y-90189400D02*
X107809100Y-90189400D01*
X64770000Y-92710000D02*
X65895300Y-92710000D01*
X142384700Y-119098700D02*
X142384700Y-119380000D01*
X216612900Y-82483200D02*
X215033300Y-84062800D01*
X111462300Y-93842600D02*
X118673400Y-93842600D01*
X69920900Y-121005100D02*
X64723000Y-121005100D01*
X143510000Y-119380000D02*
X142384700Y-119380000D01*
X227354700Y-79700000D02*
X224571600Y-82483100D01*
X107809100Y-90189400D02*
X111462300Y-93842600D01*
X65895300Y-92710000D02*
X65895300Y-92428700D01*
X119524700Y-92991300D02*
X119524700Y-92710000D01*
X215033300Y-84062800D02*
X209810600Y-84062800D01*
X71264700Y-119380000D02*
X71264700Y-119661300D01*
X64770000Y-92710000D02*
X64770000Y-93835300D01*
X65895300Y-92428700D02*
X67930100Y-90393900D01*
X209810600Y-84062800D02*
X209492100Y-84381300D01*
X134444400Y-111158400D02*
X142384700Y-119098700D01*
X127966700Y-111158400D02*
X134444400Y-111158400D01*
X120650000Y-92710000D02*
X119524700Y-92710000D01*
X63644700Y-119926800D02*
X63644700Y-94960600D01*
X184904700Y-84719600D02*
X129872600Y-84719600D01*
X64723000Y-121005100D02*
X63644700Y-119926800D01*
X68666800Y-90393900D02*
X68871300Y-90189400D01*
X228530000Y-79700000D02*
X227354700Y-79700000D01*
X224571600Y-82483200D02*
X216612900Y-82483200D01*
X224571600Y-82483100D02*
X224571600Y-82483200D01*
X118673400Y-93842600D02*
X119524700Y-92991300D01*
%TO.N,D5*%
X63355300Y-92710000D02*
X63355300Y-92505500D01*
X210071200Y-84625700D02*
X215502600Y-84625700D01*
X225336600Y-82988000D02*
X227449300Y-80875300D01*
X227449300Y-80875300D02*
X229086800Y-80875300D01*
X116140800Y-91584700D02*
X116984700Y-92428600D01*
X118110000Y-92710000D02*
X116984700Y-92710000D01*
X62230000Y-92710000D02*
X63355300Y-92710000D01*
X229086800Y-80875300D02*
X229894700Y-80067400D01*
X108253900Y-89739100D02*
X110301400Y-91786600D01*
X111084000Y-91786600D02*
X111285900Y-91584700D01*
X127140500Y-110533000D02*
X127074200Y-110599300D01*
X229894700Y-80067400D02*
X229894700Y-79700000D01*
X217140300Y-82988000D02*
X225336600Y-82988000D01*
X68684700Y-89739100D02*
X108253900Y-89739100D01*
X144924700Y-119380000D02*
X144924700Y-119098700D01*
X144924700Y-119098700D02*
X136359000Y-110533000D01*
X68480200Y-89943600D02*
X68684700Y-89739100D01*
X65917200Y-89943600D02*
X68480200Y-89943600D01*
X215502600Y-84625700D02*
X217140300Y-82988000D01*
X116984700Y-92428600D02*
X116984700Y-92710000D01*
X111285900Y-91584700D02*
X116140800Y-91584700D01*
X110301400Y-91786600D02*
X111084000Y-91786600D01*
X146050000Y-119380000D02*
X144924700Y-119380000D01*
X136359000Y-110533000D02*
X127140500Y-110533000D01*
X209857300Y-84839600D02*
X210071200Y-84625700D01*
X205868200Y-84839600D02*
X209857300Y-84839600D01*
X231070000Y-79700000D02*
X229894700Y-79700000D01*
X63355300Y-92505500D02*
X65917200Y-89943600D01*
%TO.N,A0*%
X151242900Y-84094200D02*
X130658200Y-84094200D01*
X226238500Y-111544700D02*
X218908300Y-104214500D01*
X92121500Y-80873000D02*
X95416000Y-77578500D01*
X68435300Y-77751300D02*
X71557000Y-80873000D01*
X229894700Y-112720000D02*
X229894700Y-112352600D01*
X122064700Y-77210700D02*
X122064700Y-77470000D01*
X123190000Y-77470000D02*
X122064700Y-77470000D01*
X123190000Y-77470000D02*
X124315300Y-77470000D01*
X120737400Y-75883400D02*
X122064700Y-77210700D01*
X229086800Y-111544700D02*
X226238500Y-111544700D01*
X231070000Y-112720000D02*
X229894700Y-112720000D01*
X67310000Y-77470000D02*
X68435300Y-77470000D01*
X177866900Y-105715600D02*
X160473700Y-105715600D01*
X71557000Y-80873000D02*
X92121500Y-80873000D01*
X229894700Y-112352600D02*
X229086800Y-111544700D01*
X179368000Y-104214500D02*
X177866900Y-105715600D01*
X156210000Y-104140000D02*
X157148700Y-104140000D01*
X95416000Y-77578500D02*
X110150000Y-77578500D01*
X130658200Y-84094200D02*
X124315300Y-77751300D01*
X158535900Y-105527200D02*
X157148700Y-104140000D01*
X110150000Y-77578500D02*
X111845100Y-75883400D01*
X124315300Y-77751300D02*
X124315300Y-77470000D01*
X68435300Y-77470000D02*
X68435300Y-77751300D01*
X218908300Y-104214500D02*
X179368000Y-104214500D01*
X160473700Y-105715600D02*
X160285300Y-105527200D01*
X160285300Y-105527200D02*
X158535900Y-105527200D01*
X111845100Y-75883400D02*
X120737400Y-75883400D01*
%TO.N,D4*%
X77470000Y-119380000D02*
X78595300Y-119380000D01*
X87537500Y-110233300D02*
X123282900Y-110233300D01*
X78595300Y-119380000D02*
X78595300Y-119175500D01*
X147464700Y-119380000D02*
X147464700Y-119197600D01*
X148590000Y-119380000D02*
X147464700Y-119380000D01*
X138241100Y-109974000D02*
X123542200Y-109974000D01*
X147464700Y-119197600D02*
X138241100Y-109974000D01*
X123542200Y-109974000D02*
X123282900Y-110233300D01*
X78595300Y-119175500D02*
X87537500Y-110233300D01*
%TO.N,A1*%
X180576300Y-104664800D02*
X179060900Y-106180200D01*
X160301400Y-106180200D02*
X160098700Y-105977500D01*
X157764400Y-105450600D02*
X155824500Y-105450600D01*
X226776900Y-112720000D02*
X218721700Y-104664800D01*
X70975300Y-77470000D02*
X70975300Y-77751400D01*
X130828300Y-82568300D02*
X135064100Y-82568300D01*
X153670000Y-104140000D02*
X154795300Y-104140000D01*
X109963400Y-77128200D02*
X111658500Y-75433100D01*
X73646600Y-80422700D02*
X91684600Y-80422700D01*
X135064100Y-82568300D02*
X135414200Y-82918400D01*
X94979100Y-77128200D02*
X109963400Y-77128200D01*
X154795300Y-104421400D02*
X154795300Y-104140000D01*
X227354700Y-112720000D02*
X226776900Y-112720000D01*
X125730000Y-77470000D02*
X130828300Y-82568300D01*
X135414200Y-82918400D02*
X148232300Y-82918400D01*
X218721700Y-104664800D02*
X180576300Y-104664800D01*
X160098700Y-105977500D02*
X158291300Y-105977500D01*
X91684600Y-80422700D02*
X94979100Y-77128200D01*
X69850000Y-77470000D02*
X70975300Y-77470000D01*
X70975300Y-77751400D02*
X73646600Y-80422700D01*
X123693100Y-75433100D02*
X125730000Y-77470000D01*
X111658500Y-75433100D02*
X123693100Y-75433100D01*
X228530000Y-112720000D02*
X227354700Y-112720000D01*
X179060900Y-106180200D02*
X160301400Y-106180200D01*
X155824500Y-105450600D02*
X154795300Y-104421400D01*
X158291300Y-105977500D02*
X157764400Y-105450600D01*
%TO.N,D3*%
X107718100Y-117320000D02*
X107718100Y-115790600D01*
X81135300Y-119098700D02*
X81135300Y-119380000D01*
X149500800Y-121009200D02*
X111407300Y-121009200D01*
X82914000Y-117320000D02*
X81135300Y-119098700D01*
X107718100Y-117320000D02*
X82914000Y-117320000D01*
X111407300Y-121009200D02*
X107718100Y-117320000D01*
X151130000Y-119380000D02*
X149500800Y-121009200D01*
X80010000Y-119380000D02*
X81135300Y-119380000D01*
%TO.N,A2*%
X91498000Y-79972400D02*
X94792500Y-76677900D01*
X109776800Y-76677900D02*
X111471900Y-74982800D01*
X180472900Y-106630600D02*
X160114900Y-106630600D01*
X73515300Y-77470000D02*
X73515300Y-77712900D01*
X152255300Y-104421300D02*
X152255300Y-104140000D01*
X111471900Y-74982800D02*
X124938800Y-74982800D01*
X232282100Y-112200100D02*
X232282100Y-113189500D01*
X151130000Y-104140000D02*
X152255300Y-104140000D01*
X218535100Y-105115100D02*
X181988400Y-105115100D01*
X128270000Y-77470000D02*
X129395300Y-77470000D01*
X231558400Y-113913200D02*
X227333200Y-113913200D01*
X72390000Y-77470000D02*
X73515300Y-77470000D01*
X129395300Y-77674400D02*
X133838900Y-82118000D01*
X94792500Y-76677900D02*
X109776800Y-76677900D01*
X153735000Y-105901000D02*
X152255300Y-104421300D01*
X232282100Y-113189500D02*
X231558400Y-113913200D01*
X73515300Y-77712900D02*
X75774800Y-79972400D01*
X231070000Y-111355300D02*
X231437300Y-111355300D01*
X227333200Y-113913200D02*
X218535100Y-105115100D01*
X159912100Y-106427800D02*
X158104700Y-106427800D01*
X231437300Y-111355300D02*
X232282100Y-112200100D01*
X75774800Y-79972400D02*
X91498000Y-79972400D01*
X160114900Y-106630600D02*
X159912100Y-106427800D01*
X158104700Y-106427800D02*
X157577900Y-105901000D01*
X157577900Y-105901000D02*
X153735000Y-105901000D01*
X181988400Y-105115100D02*
X180472900Y-106630600D01*
X128270000Y-77470000D02*
X127144700Y-77470000D01*
X231070000Y-110180000D02*
X231070000Y-111355300D01*
X124938800Y-74982800D02*
X127144700Y-77188700D01*
X133838900Y-82118000D02*
X145471900Y-82118000D01*
X127144700Y-77188700D02*
X127144700Y-77470000D01*
X129395300Y-77470000D02*
X129395300Y-77674400D01*
%TO.N,D2*%
X209929900Y-86861600D02*
X183360100Y-86861600D01*
X106287500Y-117770400D02*
X110001700Y-121484600D01*
X227204300Y-84629600D02*
X217334600Y-84629600D01*
X153670000Y-119380000D02*
X152544700Y-119380000D01*
X112367200Y-78595300D02*
X112251100Y-78479200D01*
X82550000Y-119380000D02*
X83675300Y-119380000D01*
X227354700Y-84780000D02*
X227204300Y-84629600D01*
X210257800Y-86533700D02*
X209929900Y-86861600D01*
X115570000Y-77470000D02*
X115570000Y-78595300D01*
X228530000Y-84780000D02*
X227354700Y-84780000D01*
X182118700Y-85620200D02*
X122594900Y-85620200D01*
X215430500Y-86533700D02*
X210257800Y-86533700D01*
X122594900Y-85620200D02*
X115570000Y-78595300D01*
X183360100Y-86861600D02*
X182118700Y-85620200D01*
X110001700Y-121484600D02*
X150721400Y-121484600D01*
X83675300Y-119098700D02*
X85003600Y-117770400D01*
X59690000Y-77470000D02*
X60815300Y-77470000D01*
X60815300Y-77751300D02*
X60815300Y-77470000D01*
X64878300Y-81814300D02*
X60815300Y-77751300D01*
X150721400Y-121484600D02*
X152544700Y-119661300D01*
X92589700Y-81814300D02*
X64878300Y-81814300D01*
X112251100Y-78479200D02*
X95924800Y-78479200D01*
X83675300Y-119380000D02*
X83675300Y-119098700D01*
X217334600Y-84629600D02*
X215430500Y-86533700D01*
X152544700Y-119661300D02*
X152544700Y-119380000D01*
X95924800Y-78479200D02*
X92589700Y-81814300D01*
X85003600Y-117770400D02*
X106287500Y-117770400D01*
X115570000Y-78595300D02*
X112367200Y-78595300D01*
%TO.N,A3*%
X164955300Y-104606200D02*
X164296200Y-105265300D01*
X74930000Y-77470000D02*
X76055300Y-77470000D01*
X91311400Y-79522100D02*
X94605900Y-76227600D01*
X76055300Y-77690000D02*
X77887400Y-79522100D01*
X109590200Y-76227600D02*
X111285300Y-74532500D01*
X164955300Y-103906700D02*
X164955300Y-104606200D01*
X159221200Y-103014700D02*
X150559200Y-103014700D01*
X165847300Y-103014700D02*
X164955300Y-103906700D01*
X150559200Y-103014700D02*
X149715300Y-103858600D01*
X178314400Y-103014700D02*
X165847300Y-103014700D01*
X228530000Y-110180000D02*
X225510700Y-110180000D01*
X160164700Y-104606200D02*
X160164700Y-103958200D01*
X127872500Y-74532500D02*
X130810000Y-77470000D01*
X160823800Y-105265300D02*
X160164700Y-104606200D01*
X149715300Y-103858600D02*
X149715300Y-104140000D01*
X94605900Y-76227600D02*
X109590200Y-76227600D01*
X179063900Y-103764200D02*
X178314400Y-103014700D01*
X148590000Y-104140000D02*
X149715300Y-104140000D01*
X225510700Y-110180000D02*
X219094900Y-103764200D01*
X76055300Y-77470000D02*
X76055300Y-77690000D01*
X111285300Y-74532500D02*
X127872500Y-74532500D01*
X164296200Y-105265300D02*
X160823800Y-105265300D01*
X219094900Y-103764200D02*
X179063900Y-103764200D01*
X77887400Y-79522100D02*
X91311400Y-79522100D01*
X160164700Y-103958200D02*
X159221200Y-103014700D01*
%TO.N,D1*%
X62230000Y-77470000D02*
X63355300Y-77470000D01*
X182305300Y-85169900D02*
X126653800Y-85169900D01*
X229894700Y-84412700D02*
X229086600Y-83604600D01*
X110454400Y-78028800D02*
X95738300Y-78028800D01*
X66927200Y-81323300D02*
X63355300Y-77751400D01*
X231070000Y-84780000D02*
X229894700Y-84780000D01*
X86215300Y-119098700D02*
X87061300Y-118252700D01*
X116984700Y-77188600D02*
X116140800Y-76344700D01*
X92443800Y-81323300D02*
X66927200Y-81323300D01*
X85090000Y-119380000D02*
X86215300Y-119380000D01*
X116140800Y-76344700D02*
X112138500Y-76344700D01*
X63355300Y-77751400D02*
X63355300Y-77470000D01*
X106132900Y-118252700D02*
X109815200Y-121935000D01*
X119235300Y-77751400D02*
X119235300Y-77470000D01*
X217402200Y-83604600D02*
X215818200Y-85188600D01*
X95738300Y-78028800D02*
X92443800Y-81323300D01*
X229894700Y-84780000D02*
X229894700Y-84412700D01*
X87061300Y-118252700D02*
X106132900Y-118252700D01*
X86215300Y-119380000D02*
X86215300Y-119098700D01*
X183537000Y-86401600D02*
X182305300Y-85169900D01*
X156210000Y-119380000D02*
X155084700Y-119380000D01*
X215818200Y-85188600D02*
X210647800Y-85188600D01*
X229086600Y-83604600D02*
X217402200Y-83604600D01*
X109815200Y-121935000D02*
X152811100Y-121935000D01*
X116984700Y-77470000D02*
X116984700Y-77188600D01*
X210647800Y-85188600D02*
X209434800Y-86401600D01*
X112138500Y-76344700D02*
X110454400Y-78028800D01*
X155084700Y-119661400D02*
X155084700Y-119380000D01*
X118110000Y-77470000D02*
X116984700Y-77470000D01*
X209434800Y-86401600D02*
X183537000Y-86401600D01*
X118110000Y-77470000D02*
X119235300Y-77470000D01*
X152811100Y-121935000D02*
X155084700Y-119661400D01*
X126653800Y-85169900D02*
X119235300Y-77751400D01*
%TO.N,A4*%
X87976100Y-79071800D02*
X87976100Y-79071700D01*
X148469600Y-102564400D02*
X147175300Y-103858700D01*
X59690000Y-119380000D02*
X59690000Y-118254700D01*
X79915800Y-79071800D02*
X87976100Y-79071800D01*
X160525800Y-102944800D02*
X160145400Y-102564400D01*
X179408800Y-103153900D02*
X178819300Y-102564400D01*
X229048700Y-108853300D02*
X225628000Y-108853300D01*
X94443100Y-75753500D02*
X109427400Y-75753500D01*
X77470000Y-77470000D02*
X78595300Y-77470000D01*
X163324200Y-102944800D02*
X160525800Y-102944800D01*
X87976100Y-79071700D02*
X91124900Y-79071700D01*
X163704600Y-102564400D02*
X163324200Y-102944800D01*
X78595300Y-77470000D02*
X78595300Y-77751300D01*
X63941100Y-71607500D02*
X71607500Y-71607500D01*
X60418800Y-68085200D02*
X63941100Y-71607500D01*
X71607500Y-71607500D02*
X77470000Y-77470000D01*
X133350000Y-77470000D02*
X132224700Y-77470000D01*
X91124900Y-79071700D02*
X94443100Y-75753500D01*
X109427400Y-75753500D02*
X111147400Y-74033500D01*
X231070000Y-107640000D02*
X229894700Y-107640000D01*
X229894700Y-108007300D02*
X229048700Y-108853300D01*
X229894700Y-107640000D02*
X229894700Y-108007300D01*
X132224700Y-77188700D02*
X132224700Y-77470000D01*
X111147400Y-74033500D02*
X129069500Y-74033500D01*
X225628000Y-108853300D02*
X219928600Y-103153900D01*
X178819300Y-102564400D02*
X163704600Y-102564400D01*
X147175300Y-103858700D02*
X147175300Y-104140000D01*
X219928600Y-103153900D02*
X179408800Y-103153900D01*
X56716900Y-68085200D02*
X60418800Y-68085200D01*
X78595300Y-77751300D02*
X79915800Y-79071800D01*
X129069500Y-74033500D02*
X132224700Y-77188700D01*
X59690000Y-118254700D02*
X56019700Y-114584400D01*
X146050000Y-104140000D02*
X147175300Y-104140000D01*
X56019700Y-68782400D02*
X56716900Y-68085200D01*
X56019700Y-114584400D02*
X56019700Y-68782400D01*
X160145400Y-102564400D02*
X148469600Y-102564400D01*
%TO.N,D0*%
X91573400Y-122411700D02*
X154874300Y-122411700D01*
X187518800Y-88940000D02*
X186214300Y-90244500D01*
X228530000Y-87320000D02*
X227354700Y-87320000D01*
X158750000Y-119380000D02*
X157624700Y-119380000D01*
X215200400Y-87152000D02*
X213412400Y-88940000D01*
X227186700Y-87152000D02*
X215200400Y-87152000D01*
X157624700Y-119661300D02*
X157624700Y-119380000D01*
X154874300Y-122411700D02*
X157624700Y-119661300D01*
X227354700Y-87320000D02*
X227186700Y-87152000D01*
X88755300Y-119593600D02*
X91573400Y-122411700D01*
X88755300Y-119380000D02*
X88755300Y-119593600D01*
X213412400Y-88940000D02*
X187518800Y-88940000D01*
X87630000Y-119380000D02*
X88755300Y-119380000D01*
%TO.N,A5*%
X218668600Y-106133000D02*
X218101000Y-105565400D01*
X86360000Y-77850700D02*
X86360000Y-77145300D01*
X107149900Y-74852800D02*
X108884500Y-73118200D01*
X85589200Y-78621500D02*
X86360000Y-77850700D01*
X81135300Y-77470000D02*
X81135300Y-77675900D01*
X131538200Y-73118200D02*
X135890000Y-77470000D01*
X157541900Y-106501900D02*
X153591300Y-106501900D01*
X108884500Y-73118200D02*
X131538200Y-73118200D01*
X218101000Y-105565400D02*
X184392500Y-105565400D01*
X152354700Y-105265300D02*
X145479200Y-105265300D01*
X88652500Y-74852800D02*
X107149900Y-74852800D01*
X157918100Y-106878100D02*
X157541900Y-106501900D01*
X159725500Y-106878100D02*
X157918100Y-106878100D01*
X86360000Y-77145300D02*
X88652500Y-74852800D01*
X143510000Y-104140000D02*
X144635300Y-104140000D01*
X80010000Y-77470000D02*
X81135300Y-77470000D01*
X182854800Y-107103100D02*
X159950500Y-107103100D01*
X153591300Y-106501900D02*
X152354700Y-105265300D01*
X145479200Y-105265300D02*
X144635300Y-104421400D01*
X81135300Y-77675900D02*
X82080900Y-78621500D01*
X144635300Y-104421400D02*
X144635300Y-104140000D01*
X82080900Y-78621500D02*
X85589200Y-78621500D01*
X159950500Y-107103100D02*
X159725500Y-106878100D01*
X184392500Y-105565400D02*
X182854800Y-107103100D01*
%TO.N,RW*%
X57150000Y-119380000D02*
X58275300Y-119380000D01*
X229086800Y-88495300D02*
X224288300Y-88495300D01*
X231070000Y-87320000D02*
X229894700Y-87320000D01*
X229894700Y-87320000D02*
X229894700Y-87687400D01*
X61481900Y-122867900D02*
X156853700Y-122867900D01*
X209568400Y-91265400D02*
X196018600Y-91265400D01*
X194715300Y-92568700D02*
X194715300Y-92850000D01*
X223168600Y-89615000D02*
X215237400Y-89615000D01*
X215237400Y-89615000D02*
X213525000Y-91327400D01*
X161290000Y-119380000D02*
X160164700Y-119380000D01*
X224288300Y-88495300D02*
X223168600Y-89615000D01*
X213525000Y-91327400D02*
X209630400Y-91327400D01*
X58275300Y-119380000D02*
X58275300Y-119661300D01*
X229894700Y-87687400D02*
X229086800Y-88495300D01*
X58275300Y-119661300D02*
X61481900Y-122867900D01*
X160164700Y-119556900D02*
X160164700Y-119380000D01*
X156853700Y-122867900D02*
X160164700Y-119556900D01*
X209630400Y-91327400D02*
X209568400Y-91265400D01*
X196018600Y-91265400D02*
X194715300Y-92568700D01*
X193590000Y-92850000D02*
X194715300Y-92850000D01*
%TO.N,A6*%
X180313600Y-102114100D02*
X163518000Y-102114100D01*
X229068000Y-106294000D02*
X225149300Y-106294000D01*
X137304700Y-77188600D02*
X136460800Y-76344700D01*
X86713600Y-74150400D02*
X83675300Y-77188700D01*
X135696900Y-76344700D02*
X132005600Y-72653400D01*
X137304700Y-77470000D02*
X137304700Y-77188600D01*
X138430000Y-77470000D02*
X137304700Y-77470000D01*
X225149300Y-106294000D02*
X221525900Y-102670600D01*
X101627200Y-74150400D02*
X86713600Y-74150400D01*
X160332000Y-102114100D02*
X143839900Y-102114100D01*
X132005600Y-72653400D02*
X103124200Y-72653400D01*
X221525900Y-102670600D02*
X180870100Y-102670600D01*
X160712400Y-102494500D02*
X160332000Y-102114100D01*
X140970000Y-104140000D02*
X141532700Y-104140000D01*
X229894700Y-105100000D02*
X229894700Y-105467300D01*
X143839900Y-102114100D02*
X142095300Y-103858700D01*
X163518000Y-102114100D02*
X163137600Y-102494500D01*
X142095300Y-103858700D02*
X142095300Y-104140000D01*
X180870100Y-102670600D02*
X180313600Y-102114100D01*
X231070000Y-105100000D02*
X229894700Y-105100000D01*
X141532700Y-104140000D02*
X142095300Y-104140000D01*
X82550000Y-77470000D02*
X83675300Y-77470000D01*
X229894700Y-105467300D02*
X229068000Y-106294000D01*
X103124200Y-72653400D02*
X101627200Y-74150400D01*
X83675300Y-77188700D02*
X83675300Y-77470000D01*
X163137600Y-102494500D02*
X160712400Y-102494500D01*
X136460800Y-76344700D02*
X135696900Y-76344700D01*
%TO.N,A7*%
X224475000Y-102220300D02*
X227354700Y-105100000D01*
X160518600Y-101663800D02*
X160899000Y-102044200D01*
X138430000Y-104140000D02*
X136803900Y-105766100D01*
X139555300Y-103858700D02*
X139555300Y-104140000D01*
X142363000Y-101873000D02*
X141541000Y-101873000D01*
X180500200Y-101663800D02*
X181056700Y-102220300D01*
X142363000Y-101873000D02*
X142572200Y-101663800D01*
X163331400Y-101663800D02*
X180500200Y-101663800D01*
X142572200Y-101663800D02*
X160518600Y-101663800D01*
X138430000Y-104140000D02*
X138992700Y-104140000D01*
X228530000Y-105100000D02*
X227354700Y-105100000D01*
X136803900Y-105766100D02*
X115306400Y-105766100D01*
X160899000Y-102044200D02*
X162951000Y-102044200D01*
X138992700Y-104140000D02*
X139555300Y-104140000D01*
X162951000Y-102044200D02*
X163331400Y-101663800D01*
X105679200Y-96138900D02*
X83982300Y-96138900D01*
X141541000Y-101873000D02*
X139555300Y-103858700D01*
X83982300Y-96138900D02*
X83850900Y-96270300D01*
X181056700Y-102220300D02*
X224475000Y-102220300D01*
X115306400Y-105766100D02*
X105679200Y-96138900D01*
%TO.N,A8*%
X84607800Y-91584600D02*
X107193200Y-91584600D01*
X137304700Y-92428700D02*
X137304700Y-92710000D01*
X107193200Y-91584600D02*
X110802100Y-95193500D01*
X229076300Y-103745700D02*
X229894700Y-102927300D01*
X137015300Y-104140000D02*
X137015300Y-103858700D01*
X82550000Y-92710000D02*
X83675300Y-92710000D01*
X83675300Y-92517100D02*
X84607800Y-91584600D01*
X231070000Y-102560000D02*
X229894700Y-102560000D01*
X162764400Y-101593900D02*
X163144900Y-101213400D01*
X229894700Y-102927300D02*
X229894700Y-102560000D01*
X224992900Y-101769900D02*
X226968700Y-103745700D01*
X129540000Y-93086200D02*
X129540000Y-92337100D01*
X83675300Y-92710000D02*
X83675300Y-92517100D01*
X130305400Y-91571700D02*
X136447700Y-91571700D01*
X184990000Y-101213400D02*
X185546500Y-101769900D01*
X110802100Y-95193500D02*
X127432700Y-95193500D01*
X226968700Y-103745700D02*
X229076300Y-103745700D01*
X139660600Y-101213400D02*
X160705100Y-101213400D01*
X129540000Y-92337100D02*
X130305400Y-91571700D01*
X138430000Y-92710000D02*
X137304700Y-92710000D01*
X137015300Y-103858700D02*
X139660600Y-101213400D01*
X185546500Y-101769900D02*
X224992900Y-101769900D01*
X160705100Y-101213400D02*
X161085600Y-101593900D01*
X135890000Y-104140000D02*
X137015300Y-104140000D01*
X163144900Y-101213400D02*
X184990000Y-101213400D01*
X127432700Y-95193500D02*
X129540000Y-93086200D01*
X136447700Y-91571700D02*
X137304700Y-92428700D01*
X161085600Y-101593900D02*
X162764400Y-101593900D01*
%TO.N,A9*%
X133350000Y-104140000D02*
X132220100Y-105269900D01*
X81135300Y-92991400D02*
X81135300Y-92710000D01*
X129540000Y-103761900D02*
X122341800Y-96563700D01*
X132220100Y-105269900D02*
X130300800Y-105269900D01*
X130300800Y-105269900D02*
X129540000Y-104509100D01*
X122341800Y-96563700D02*
X108014700Y-96563700D01*
X140404300Y-97991300D02*
X222786000Y-97991300D01*
X106188900Y-94737900D02*
X82881800Y-94737900D01*
X108014700Y-96563700D02*
X106188900Y-94737900D01*
X222786000Y-97991300D02*
X227354700Y-102560000D01*
X134475300Y-104140000D02*
X134475300Y-103920300D01*
X82881800Y-94737900D02*
X81135300Y-92991400D01*
X134475300Y-103920300D02*
X140404300Y-97991300D01*
X129540000Y-104509100D02*
X129540000Y-103761900D01*
X80010000Y-92710000D02*
X81135300Y-92710000D01*
X228530000Y-102560000D02*
X227354700Y-102560000D01*
X133350000Y-104140000D02*
X134475300Y-104140000D01*
%TO.N,A10*%
X110988700Y-94743200D02*
X125392900Y-94743200D01*
X131935300Y-104140000D02*
X131935300Y-103906100D01*
X130810000Y-104140000D02*
X131935300Y-104140000D01*
X138300400Y-97541000D02*
X224242500Y-97541000D01*
X227912100Y-101210600D02*
X229071400Y-101210600D01*
X107379800Y-91134300D02*
X110988700Y-94743200D01*
X127144700Y-92991400D02*
X127144700Y-92710000D01*
X73965700Y-91134300D02*
X107379800Y-91134300D01*
X229894700Y-100387300D02*
X229894700Y-100020000D01*
X224242500Y-97541000D02*
X227912100Y-101210600D01*
X231070000Y-100020000D02*
X229894700Y-100020000D01*
X131935300Y-103906100D02*
X138300400Y-97541000D01*
X125392900Y-94743200D02*
X127144700Y-92991400D01*
X128270000Y-92710000D02*
X127144700Y-92710000D01*
X229071400Y-101210600D02*
X229894700Y-100387300D01*
X72390000Y-92710000D02*
X73965700Y-91134300D01*
%TO.N,PHI2*%
X153824800Y-109500600D02*
X154404200Y-110080000D01*
X219364100Y-92102400D02*
X220431100Y-91035400D01*
X231070000Y-67000000D02*
X231070000Y-68175300D01*
X173990000Y-119380000D02*
X172864700Y-119380000D01*
X172864700Y-119098700D02*
X172864700Y-119380000D01*
X158244100Y-110080000D02*
X158869800Y-110705700D01*
X198670000Y-92850000D02*
X199798600Y-91721400D01*
X209450200Y-92102400D02*
X219364100Y-92102400D01*
X231591000Y-91035400D02*
X232308100Y-90318300D01*
X199798600Y-91721400D02*
X209069200Y-91721400D01*
X154404200Y-110080000D02*
X158244100Y-110080000D01*
X77189400Y-109500600D02*
X153824800Y-109500600D01*
X220431100Y-91035400D02*
X231591000Y-91035400D01*
X231437300Y-68175300D02*
X231070000Y-68175300D01*
X164471700Y-110705700D02*
X172864700Y-119098700D01*
X232308100Y-69046100D02*
X231437300Y-68175300D01*
X158869800Y-110705700D02*
X164471700Y-110705700D01*
X209069200Y-91721400D02*
X209450200Y-92102400D01*
X232308100Y-90318300D02*
X232308100Y-69046100D01*
X67310000Y-119380000D02*
X77189400Y-109500600D01*
%TO.N,A11*%
X148343600Y-93835300D02*
X135319200Y-93835300D01*
X229053700Y-96302700D02*
X212704300Y-96302700D01*
X80792200Y-95188200D02*
X78595300Y-92991300D01*
X134475300Y-92991400D02*
X134475300Y-92710000D01*
X135319200Y-93835300D02*
X134475300Y-92991400D01*
X212366600Y-96640400D02*
X184061700Y-96640400D01*
X212704300Y-96302700D02*
X212366600Y-96640400D01*
X149626200Y-95117900D02*
X148343600Y-93835300D01*
X175443200Y-95821000D02*
X174740100Y-95117900D01*
X78595300Y-92991300D02*
X78595300Y-92710000D01*
X106002300Y-95188200D02*
X80792200Y-95188200D01*
X183242400Y-95821000D02*
X175443200Y-95821000D01*
X229705400Y-96954400D02*
X229053700Y-96302700D01*
X228530000Y-98844700D02*
X228897300Y-98844700D01*
X127144700Y-104140000D02*
X120018700Y-97014000D01*
X107828100Y-97014000D02*
X106002300Y-95188200D01*
X184061700Y-96640400D02*
X184061700Y-96640300D01*
X228897300Y-98844700D02*
X229705400Y-98036600D01*
X133350000Y-92710000D02*
X134475300Y-92710000D01*
X228530000Y-100020000D02*
X228530000Y-98844700D01*
X229705400Y-98036600D02*
X229705400Y-96954400D01*
X77470000Y-92710000D02*
X78595300Y-92710000D01*
X184061700Y-96640300D02*
X183242400Y-95821000D01*
X174740100Y-95117900D02*
X149626200Y-95117900D01*
X128270000Y-104140000D02*
X127144700Y-104140000D01*
X120018700Y-97014000D02*
X107828100Y-97014000D01*
%TO.N,Net-(C3-Pad1)*%
X93282800Y-59547500D02*
X92205300Y-58470000D01*
X116840000Y-58420000D02*
X115714700Y-58420000D01*
X114587200Y-59547500D02*
X93282800Y-59547500D01*
X91080000Y-58470000D02*
X92205300Y-58470000D01*
X115714700Y-58420000D02*
X114587200Y-59547500D01*
%TO.N,Net-(C17-Pad1)*%
X189740000Y-118975000D02*
X186660000Y-115895000D01*
X191450000Y-118975000D02*
X189740000Y-118975000D01*
%TO.N,Net-(C18-Pad2)*%
X161272200Y-101143600D02*
X162577800Y-101143600D01*
X217422100Y-106017100D02*
X219045000Y-107640000D01*
X185558800Y-101145300D02*
X186491200Y-101145300D01*
X207470300Y-107358700D02*
X208811900Y-106017100D01*
X160830900Y-100702300D02*
X161272200Y-101143600D01*
X207470300Y-107640000D02*
X207470300Y-107358700D01*
X188565000Y-100020000D02*
X187439700Y-100020000D01*
X208811900Y-106017100D02*
X217422100Y-106017100D01*
X206345000Y-107640000D02*
X207470300Y-107640000D01*
X152899300Y-100702300D02*
X160830900Y-100702300D01*
X187439700Y-100196800D02*
X187439700Y-100020000D01*
X189160000Y-126690000D02*
X187657600Y-125187600D01*
X185171000Y-100757500D02*
X185558800Y-101145300D01*
X121192400Y-125187600D02*
X120650000Y-125730000D01*
X187657600Y-125187600D02*
X121192400Y-125187600D01*
X151765000Y-99568000D02*
X152899300Y-100702300D01*
X186491200Y-101145300D02*
X187439700Y-100196800D01*
X162963900Y-100757500D02*
X185171000Y-100757500D01*
X162577800Y-101143600D02*
X162963900Y-100757500D01*
%TO.N,Net-(U5-Pad1)*%
X118661800Y-86070500D02*
X111577000Y-78985700D01*
X111577000Y-78985700D02*
X96055300Y-78985700D01*
X70298500Y-83025600D02*
X60815300Y-92508800D01*
X182739900Y-87125800D02*
X181684600Y-86070500D01*
X92015400Y-83025600D02*
X70298500Y-83025600D01*
X60815300Y-92508800D02*
X60815300Y-101889400D01*
X96055300Y-78985700D02*
X92015400Y-83025600D01*
X60815300Y-101889400D02*
X59690000Y-103014700D01*
X59690000Y-104140000D02*
X59690000Y-103014700D01*
X181684600Y-86070500D02*
X118661800Y-86070500D01*
%TO.N,Net-(CON1-Pad1)*%
X221825700Y-47625000D02*
X218300700Y-51150000D01*
X218300700Y-51150000D02*
X211665000Y-51150000D01*
X223901000Y-47625000D02*
X221825700Y-47625000D01*
%TO.N,KBD_D0*%
X102870000Y-104140000D02*
X102870000Y-103014700D01*
X103545300Y-103014700D02*
X102870000Y-103014700D01*
X105405300Y-101154700D02*
X103545300Y-103014700D01*
%TO.N,OUT_D1*%
X93522500Y-98340100D02*
X99226500Y-98340100D01*
X86818200Y-98252500D02*
X93434900Y-98252500D01*
X93434900Y-98252500D02*
X93522500Y-98340100D01*
X81135300Y-104140000D02*
X81135300Y-103935400D01*
X80010000Y-104140000D02*
X81135300Y-104140000D01*
X81135300Y-103935400D02*
X86818200Y-98252500D01*
X99226500Y-98340100D02*
X99263200Y-98303400D01*
%TO.N,OUT_D2*%
X143510000Y-67945000D02*
X142384700Y-67945000D01*
X97823500Y-67157600D02*
X116533100Y-67157600D01*
X116872400Y-66818300D02*
X141539300Y-66818300D01*
X93929600Y-71051500D02*
X97823500Y-67157600D01*
X116533100Y-67157600D02*
X116872400Y-66818300D01*
X141539300Y-66818300D02*
X142384700Y-67663700D01*
X142384700Y-67663700D02*
X142384700Y-67945000D01*
%TO.N,OUT_D3*%
X102115300Y-97676500D02*
X102284900Y-97846100D01*
X74930000Y-104140000D02*
X76055300Y-104140000D01*
X93621500Y-97802200D02*
X93709100Y-97889800D01*
X93709100Y-97889800D02*
X94888200Y-97889800D01*
X76055300Y-103935500D02*
X82188600Y-97802200D01*
X82188600Y-97802200D02*
X93621500Y-97802200D01*
X94888200Y-97889800D02*
X95101500Y-97676500D01*
X76055300Y-104140000D02*
X76055300Y-103935500D01*
X95101500Y-97676500D02*
X102115300Y-97676500D01*
%TO.N,OUT_D4*%
X93808100Y-97351900D02*
X93895700Y-97439500D01*
X105218600Y-97217000D02*
X105382900Y-97381300D01*
X94701600Y-97439500D02*
X94924100Y-97217000D01*
X93895700Y-97439500D02*
X94701600Y-97439500D01*
X80098900Y-97351900D02*
X93808100Y-97351900D01*
X72390000Y-104140000D02*
X73515300Y-104140000D01*
X73515300Y-103935500D02*
X80098900Y-97351900D01*
X73515300Y-104140000D02*
X73515300Y-103935500D01*
X94924100Y-97217000D02*
X105218600Y-97217000D01*
%TO.N,OUT_D5*%
X116438400Y-66367900D02*
X116274000Y-66532300D01*
X83820000Y-104537800D02*
X83092500Y-105265300D01*
X150004700Y-67663700D02*
X148708900Y-66367900D01*
X83820000Y-103602200D02*
X83820000Y-104537800D01*
X71819200Y-105265300D02*
X70975300Y-104421400D01*
X83092500Y-105265300D02*
X71819200Y-105265300D01*
X70975300Y-104421400D02*
X70975300Y-104140000D01*
X84601100Y-102821100D02*
X83820000Y-103602200D01*
X151130000Y-67945000D02*
X150004700Y-67945000D01*
X148708900Y-66367900D02*
X116438400Y-66367900D01*
X69850000Y-104140000D02*
X70975300Y-104140000D01*
X150004700Y-67945000D02*
X150004700Y-67663700D01*
%TO.N,OUT_D6*%
X67310000Y-104140000D02*
X68435300Y-104140000D01*
X149247900Y-107847900D02*
X71861900Y-107847900D01*
X68435300Y-104421300D02*
X68435300Y-104140000D01*
X71861900Y-107847900D02*
X68435300Y-104421300D01*
%TO.N,Net-(J6-Pad7)*%
X157865300Y-52048000D02*
X164237300Y-58420000D01*
X164237300Y-58420000D02*
X183217700Y-58420000D01*
X182880000Y-62230000D02*
X182880000Y-61104700D01*
X184005300Y-60260800D02*
X183161400Y-61104700D01*
X156690000Y-51240000D02*
X157865300Y-51240000D01*
X183217700Y-58420000D02*
X184005300Y-59207600D01*
X184005300Y-59207600D02*
X184005300Y-60260800D01*
X183161400Y-61104700D02*
X182880000Y-61104700D01*
X157865300Y-51240000D02*
X157865300Y-52048000D01*
%TO.N,CLR_SCR*%
X187575000Y-37800000D02*
X187950000Y-37800000D01*
X66825000Y-37800000D02*
X187575000Y-37800000D01*
X51200000Y-62815000D02*
X53625000Y-60390000D01*
X53625000Y-60390000D02*
X53625000Y-44500000D01*
X64025000Y-40600000D02*
X66825000Y-37800000D01*
X53625000Y-44500000D02*
X57525000Y-40600000D01*
X187950000Y-37800000D02*
X188025000Y-37725000D01*
%TO.N,MOSI*%
X126855300Y-60325000D02*
X126855300Y-60043700D01*
X180629400Y-45575300D02*
X181754700Y-44450000D01*
X180629400Y-45575300D02*
X159814700Y-45575300D01*
X182880000Y-44450000D02*
X181754700Y-44450000D01*
X133749100Y-53149900D02*
X152240100Y-53149900D01*
X159814700Y-45575300D02*
X154150000Y-51240000D01*
X125730000Y-60325000D02*
X126855300Y-60325000D01*
X126855300Y-60043700D02*
X133749100Y-53149900D01*
X152240100Y-53149900D02*
X154150000Y-51240000D01*
%TO.N,Net-(R13-Pad2)*%
X161925000Y-99568000D02*
X163050300Y-99568000D01*
X219045000Y-100020000D02*
X217919700Y-100020000D01*
X164176700Y-98441600D02*
X216622600Y-98441600D01*
X216622600Y-98441600D02*
X217919700Y-99738700D01*
X217919700Y-99738700D02*
X217919700Y-100020000D01*
X163050300Y-99568000D02*
X164176700Y-98441600D01*
%TO.N,MISO*%
X180345000Y-39375000D02*
X160935000Y-39375000D01*
X182880000Y-41910000D02*
X180345000Y-39375000D01*
X160935000Y-39375000D02*
X149070000Y-51240000D01*
%TO.N,CLK*%
X160940000Y-41910000D02*
X151610000Y-51240000D01*
X167640000Y-41910000D02*
X160940000Y-41910000D01*
%TO.N,Net-(R15-Pad2)*%
X161925000Y-93472000D02*
X186071500Y-93472000D01*
X188164300Y-95564800D02*
X189512700Y-95564800D01*
X186071500Y-93472000D02*
X188164300Y-95564800D01*
%TO.N,Net-(J6-Pad13)*%
X184005300Y-46990000D02*
X185130600Y-45864700D01*
X201930000Y-46990000D02*
X200804700Y-46990000D01*
X185130600Y-45864700D02*
X199679400Y-45864700D01*
X199679400Y-45864700D02*
X200804700Y-46990000D01*
X182880000Y-46990000D02*
X184005300Y-46990000D01*
%TO.N,PHI1*%
X227445600Y-75795300D02*
X222675000Y-80565900D01*
X211916400Y-82486800D02*
X206334000Y-82486800D01*
X229894700Y-74620000D02*
X229894700Y-74987400D01*
X231070000Y-74620000D02*
X229894700Y-74620000D01*
X222675000Y-80565900D02*
X213837300Y-80565900D01*
X206334000Y-82486800D02*
X206275600Y-82545200D01*
X229894700Y-74987400D02*
X229086800Y-75795300D01*
X229086800Y-75795300D02*
X227445600Y-75795300D01*
X213837300Y-80565900D02*
X211916400Y-82486800D01*
%TO.N,SYNC*%
X208432000Y-80644400D02*
X205017400Y-80644400D01*
X231070000Y-69540000D02*
X229894700Y-69540000D01*
X205017400Y-80644400D02*
X204338800Y-81323000D01*
X218480800Y-79214700D02*
X209861700Y-79214700D01*
X209861700Y-79214700D02*
X208432000Y-80644400D01*
X226980200Y-70715300D02*
X218480800Y-79214700D01*
X204338800Y-81323000D02*
X203733400Y-81323000D01*
X203333100Y-81723300D02*
X185568900Y-81723300D01*
X229086800Y-70715300D02*
X226980200Y-70715300D01*
X229894700Y-69540000D02*
X229894700Y-69907400D01*
X203733400Y-81323000D02*
X203333100Y-81723300D01*
X229894700Y-69907400D02*
X229086800Y-70715300D01*
%TO.N,Vin*%
X230848100Y-61170000D02*
X232805000Y-61170000D01*
X218254900Y-59471900D02*
X210300300Y-51517300D01*
X232805300Y-63127200D02*
X232805300Y-115201300D01*
X235625000Y-53250000D02*
X233275000Y-50900000D01*
X223411900Y-59471900D02*
X218254900Y-59471900D01*
X232805000Y-61170000D02*
X235625000Y-58350000D01*
X228530000Y-117800000D02*
X229705300Y-117800000D01*
X230848100Y-61170000D02*
X232805300Y-63127200D01*
X231381900Y-116624700D02*
X230513200Y-116624700D01*
X235625000Y-58350000D02*
X235625000Y-53250000D01*
X209125000Y-51150000D02*
X210300300Y-51150000D01*
X230513200Y-116624700D02*
X229705300Y-117432600D01*
X229705300Y-117432600D02*
X229705300Y-117800000D01*
X230848100Y-61170000D02*
X225110000Y-61170000D01*
X210300300Y-51517300D02*
X210300300Y-51150000D01*
X232805300Y-115201300D02*
X231381900Y-116624700D01*
X225110000Y-61170000D02*
X223411900Y-59471900D01*
%TO.N,Net-(J7-Pad13)*%
X209455700Y-108765300D02*
X195614200Y-108765300D01*
X193645000Y-107640000D02*
X194770300Y-107640000D01*
X210299700Y-107640000D02*
X210299700Y-107921300D01*
X195614200Y-114560800D02*
X194280000Y-115895000D01*
X211425000Y-107640000D02*
X210299700Y-107640000D01*
X195614200Y-108765300D02*
X195614200Y-114560800D01*
X156924200Y-108679300D02*
X156747400Y-108502500D01*
X159204100Y-108904300D02*
X158979100Y-108679300D01*
X210299700Y-107921300D02*
X209455700Y-108765300D01*
X195614200Y-108765300D02*
X194770300Y-107921400D01*
X192519700Y-107640000D02*
X192519700Y-107921300D01*
X193645000Y-107640000D02*
X192519700Y-107640000D01*
X192519700Y-107921300D02*
X191536700Y-108904300D01*
X194770300Y-107921400D02*
X194770300Y-107640000D01*
X191536700Y-108904300D02*
X159204100Y-108904300D01*
X158979100Y-108679300D02*
X156924200Y-108679300D01*
%TO.N,Net-(J7-Pad14)*%
X214442800Y-106467500D02*
X215090400Y-107115100D01*
X215090400Y-107115100D02*
X215090400Y-107837200D01*
X221825600Y-43584400D02*
X221825600Y-43196300D01*
X221825600Y-43196300D02*
X217349900Y-38720600D01*
X215090400Y-107837200D02*
X216301700Y-109048500D01*
X227451400Y-118980100D02*
X231587700Y-118980100D01*
X217349900Y-38720600D02*
X127384400Y-38720600D01*
X237250000Y-59175000D02*
X237250000Y-44625000D01*
X237250000Y-44625000D02*
X222866200Y-44625000D01*
X210057500Y-106467500D02*
X214442800Y-106467500D01*
X231587700Y-118980100D02*
X233267600Y-117300200D01*
X217519800Y-109048500D02*
X227451400Y-118980100D01*
X222866200Y-44625000D02*
X221825600Y-43584400D01*
X127384400Y-38720600D02*
X126250000Y-39855000D01*
X233267600Y-63157400D02*
X237250000Y-59175000D01*
X208885000Y-107640000D02*
X210057500Y-106467500D01*
X233267600Y-117300200D02*
X233267600Y-63157400D01*
X216301700Y-109048500D02*
X217519800Y-109048500D01*
%TO.N,Net-(P2-Pad1)*%
X204440000Y-115895000D02*
X203314700Y-115895000D01*
X203314700Y-115895000D02*
X202159400Y-117050300D01*
X202159400Y-117050300D02*
X192015600Y-117050300D01*
X158792500Y-109129600D02*
X155856800Y-109129600D01*
X159242800Y-109579900D02*
X158792500Y-109129600D01*
X192015600Y-117050300D02*
X184545200Y-109579900D01*
X155856800Y-109129600D02*
X155725400Y-108998200D01*
X184545200Y-109579900D02*
X159242800Y-109579900D01*
%TO.N,Net-(P4-Pad2)*%
X159763900Y-107553400D02*
X159538900Y-107328400D01*
X151317800Y-106952200D02*
X150590200Y-106224600D01*
X115128000Y-106224600D02*
X105600700Y-96697300D01*
X202679700Y-107358700D02*
X201336800Y-106015800D01*
X150590200Y-106224600D02*
X115128000Y-106224600D01*
X201336800Y-106015800D02*
X184764700Y-106015800D01*
X157355300Y-106952200D02*
X151317800Y-106952200D01*
X203805000Y-107640000D02*
X202679700Y-107640000D01*
X105600700Y-96697300D02*
X94271600Y-96697300D01*
X184764700Y-106015800D02*
X183227100Y-107553400D01*
X159538900Y-107328400D02*
X157731500Y-107328400D01*
X183227100Y-107553400D02*
X159763900Y-107553400D01*
X94271600Y-96697300D02*
X94182100Y-96786800D01*
X157731500Y-107328400D02*
X157355300Y-106952200D01*
X202679700Y-107640000D02*
X202679700Y-107358700D01*
%TO.N,Net-(P4-Pad3)*%
X159577300Y-108003700D02*
X159352300Y-107778700D01*
X199258600Y-106477600D02*
X185258000Y-106477600D01*
X113338000Y-106751100D02*
X105521800Y-98934900D01*
X150019400Y-106751100D02*
X113338000Y-106751100D01*
X201265000Y-107640000D02*
X200139700Y-107640000D01*
X200139700Y-107358700D02*
X199258600Y-106477600D01*
X157168800Y-107402600D02*
X150670900Y-107402600D01*
X183731900Y-108003700D02*
X159577300Y-108003700D01*
X200139700Y-107640000D02*
X200139700Y-107358700D01*
X185258000Y-106477600D02*
X183731900Y-108003700D01*
X105521800Y-98934900D02*
X92013900Y-98934900D01*
X159352300Y-107778700D02*
X157544900Y-107778700D01*
X150670900Y-107402600D02*
X150019400Y-106751100D01*
X157544900Y-107778700D02*
X157168800Y-107402600D01*
%TO.N,unconnected-(P4-Pad5)*%
X80645000Y-43685000D02*
X94365000Y-43685000D01*
%TO.N,Net-(R11-Pad2)*%
X140730700Y-125824600D02*
X173925900Y-125824600D01*
X139555300Y-127000000D02*
X140730700Y-125824600D01*
X138430000Y-127000000D02*
X139555300Y-127000000D01*
%TO.N,Net-(R12-Pad1)*%
X207759700Y-99738700D02*
X206912900Y-98891900D01*
X161458800Y-100693300D02*
X159967000Y-99201500D01*
X206912900Y-98891900D02*
X185133300Y-98891900D01*
X183819200Y-100206000D02*
X162878500Y-100206000D01*
X162391200Y-100693300D02*
X161458800Y-100693300D01*
X162878500Y-100206000D02*
X162391200Y-100693300D01*
X159967000Y-99201500D02*
X156140800Y-99201500D01*
X208885000Y-100020000D02*
X207759700Y-100020000D01*
X185133300Y-98891900D02*
X183819200Y-100206000D01*
X207759700Y-100020000D02*
X207759700Y-99738700D01*
%TO.N,Net-(R14-Pad2)*%
X167244100Y-91950800D02*
X163050300Y-87757000D01*
X191238600Y-94578300D02*
X188646800Y-94578300D01*
X188646800Y-94578300D02*
X186019300Y-91950800D01*
X186019300Y-91950800D02*
X167244100Y-91950800D01*
X161925000Y-87757000D02*
X163050300Y-87757000D01*
X192186300Y-95526000D02*
X191238600Y-94578300D01*
%TO.N,Net-(R17-Pad1)*%
X186025000Y-107640000D02*
X184899700Y-107640000D01*
X159390700Y-108454000D02*
X159165700Y-108229000D01*
X149832900Y-107201500D02*
X99259700Y-107201500D01*
X99259700Y-107201500D02*
X96520000Y-104461800D01*
X92334500Y-99570000D02*
X91397200Y-99570000D01*
X184899700Y-107640000D02*
X184085700Y-108454000D01*
X159165700Y-108229000D02*
X157358300Y-108229000D01*
X96520000Y-103755500D02*
X92334500Y-99570000D01*
X184085700Y-108454000D02*
X159390700Y-108454000D01*
X157358300Y-108229000D02*
X157000600Y-107871300D01*
X96520000Y-104461800D02*
X96520000Y-103755500D01*
X157000600Y-107871300D02*
X150502700Y-107871300D01*
X150502700Y-107871300D02*
X149832900Y-107201500D01*
%TO.N,Net-(U3-Pad1)*%
X200084700Y-85037200D02*
X200084700Y-85230000D01*
X199152100Y-84104600D02*
X200084700Y-85037200D01*
X191050000Y-85230000D02*
X192175300Y-85230000D01*
X193037000Y-84104600D02*
X199152100Y-84104600D01*
X201210000Y-85230000D02*
X200084700Y-85230000D01*
X192175300Y-85230000D02*
X192175300Y-84966300D01*
X192175300Y-84966300D02*
X193037000Y-84104600D01*
X201210000Y-85230000D02*
X203750000Y-85230000D01*
%TO.N,Net-(U3-Pad13)*%
X200084700Y-92850000D02*
X200084700Y-93034800D01*
X190586200Y-93977800D02*
X189635300Y-93026900D01*
X199141700Y-93977800D02*
X190586200Y-93977800D01*
X188510000Y-92850000D02*
X189635300Y-92850000D01*
X201210000Y-92850000D02*
X200084700Y-92850000D01*
X189635300Y-93026900D02*
X189635300Y-92850000D01*
X200084700Y-93034800D02*
X199141700Y-93977800D01*
%TO.N,Net-(U3-Pad11)*%
X88755300Y-92991400D02*
X89599200Y-93835300D01*
X108807000Y-93835300D02*
X110634800Y-95663100D01*
X148260700Y-95663100D02*
X149043900Y-96446300D01*
X88755300Y-92710000D02*
X88755300Y-92991400D01*
X89599200Y-93835300D02*
X108807000Y-93835300D01*
X149043900Y-96446300D02*
X182983300Y-96446300D01*
X110634800Y-95663100D02*
X148260700Y-95663100D01*
X87630000Y-92710000D02*
X88755300Y-92710000D01*
%TO.N,Net-(U5-Pad3)*%
X197544700Y-71895000D02*
X197544700Y-71613700D01*
X102867900Y-71679800D02*
X92508700Y-71679800D01*
X196667000Y-70736000D02*
X195652000Y-70736000D01*
X83178600Y-59595300D02*
X83460000Y-59595300D01*
X172251600Y-76055800D02*
X167003600Y-76055800D01*
X193474300Y-73660000D02*
X174647400Y-73660000D01*
X104597500Y-69950200D02*
X102867900Y-71679800D01*
X167003600Y-76055800D02*
X163711300Y-72763500D01*
X198670000Y-71895000D02*
X197544700Y-71895000D01*
X174647400Y-73660000D02*
X172251600Y-76055800D01*
X197544700Y-71613700D02*
X196667000Y-70736000D01*
X195652000Y-70736000D02*
X194860000Y-71528000D01*
X194860000Y-71528000D02*
X194860000Y-72274300D01*
X133389500Y-72763500D02*
X130576200Y-69950200D01*
X92508700Y-71679800D02*
X82334700Y-61505800D01*
X82334700Y-61505800D02*
X82334700Y-60439200D01*
X194860000Y-72274300D02*
X193474300Y-73660000D01*
X82334700Y-60439200D02*
X83178600Y-59595300D01*
X163711300Y-72763500D02*
X133389500Y-72763500D01*
X130576200Y-69950200D02*
X104597500Y-69950200D01*
X83460000Y-58470000D02*
X83460000Y-59595300D01*
%TD*%
M02*
