%TF.GenerationSoftware,KiCad,Pcbnew,(6.0.10)*%
%TF.CreationDate,2023-07-26T11:36:41-05:00*%
%TF.ProjectId,Open Apple 1 SBC,4f70656e-2041-4707-906c-652031205342,rev?*%
%TF.SameCoordinates,Original*%
%TF.FileFunction,Legend,Bot*%
%TF.FilePolarity,Positive*%
%FSLAX46Y46*%
G04 Gerber Fmt 4.6, Leading zero omitted, Abs format (unit mm)*
G04 Created by KiCad (PCBNEW (6.0.10)) date 2023-07-26 11:36:41*
%MOMM*%
%LPD*%
G01*
G04 APERTURE LIST*
%ADD10C,0.300000*%
G04 APERTURE END LIST*
D10*
X120743571Y-88578571D02*
X120457857Y-89578571D01*
X120172142Y-88864285D01*
X119886428Y-89578571D01*
X119600714Y-88578571D01*
X119172142Y-88578571D02*
X118886428Y-89578571D01*
X118600714Y-88864285D01*
X118315000Y-89578571D01*
X118029285Y-88578571D01*
X117600714Y-88578571D02*
X117315000Y-89578571D01*
X117029285Y-88864285D01*
X116743571Y-89578571D01*
X116457857Y-88578571D01*
X115886428Y-89435714D02*
X115815000Y-89507142D01*
X115886428Y-89578571D01*
X115957857Y-89507142D01*
X115886428Y-89435714D01*
X115886428Y-89578571D01*
X114529285Y-89578571D02*
X114529285Y-88792857D01*
X114600714Y-88650000D01*
X114743571Y-88578571D01*
X115029285Y-88578571D01*
X115172142Y-88650000D01*
X114529285Y-89507142D02*
X114672142Y-89578571D01*
X115029285Y-89578571D01*
X115172142Y-89507142D01*
X115243571Y-89364285D01*
X115243571Y-89221428D01*
X115172142Y-89078571D01*
X115029285Y-89007142D01*
X114672142Y-89007142D01*
X114529285Y-88935714D01*
X113172142Y-89578571D02*
X113172142Y-88078571D01*
X113172142Y-89507142D02*
X113315000Y-89578571D01*
X113600714Y-89578571D01*
X113743571Y-89507142D01*
X113815000Y-89435714D01*
X113886428Y-89292857D01*
X113886428Y-88864285D01*
X113815000Y-88721428D01*
X113743571Y-88650000D01*
X113600714Y-88578571D01*
X113315000Y-88578571D01*
X113172142Y-88650000D01*
X112600714Y-88578571D02*
X112315000Y-89578571D01*
X112029285Y-88864285D01*
X111743571Y-89578571D01*
X111457857Y-88578571D01*
X110243571Y-89578571D02*
X110243571Y-88792857D01*
X110315000Y-88650000D01*
X110457857Y-88578571D01*
X110743571Y-88578571D01*
X110886428Y-88650000D01*
X110243571Y-89507142D02*
X110386428Y-89578571D01*
X110743571Y-89578571D01*
X110886428Y-89507142D01*
X110957857Y-89364285D01*
X110957857Y-89221428D01*
X110886428Y-89078571D01*
X110743571Y-89007142D01*
X110386428Y-89007142D01*
X110243571Y-88935714D01*
X109743571Y-88578571D02*
X109172142Y-88578571D01*
X109529285Y-88078571D02*
X109529285Y-89364285D01*
X109457857Y-89507142D01*
X109315000Y-89578571D01*
X109172142Y-89578571D01*
X108100714Y-89507142D02*
X108243571Y-89578571D01*
X108529285Y-89578571D01*
X108672142Y-89507142D01*
X108743571Y-89364285D01*
X108743571Y-88792857D01*
X108672142Y-88650000D01*
X108529285Y-88578571D01*
X108243571Y-88578571D01*
X108100714Y-88650000D01*
X108029285Y-88792857D01*
X108029285Y-88935714D01*
X108743571Y-89078571D01*
X107386428Y-89578571D02*
X107386428Y-88578571D01*
X107386428Y-88864285D02*
X107315000Y-88721428D01*
X107243571Y-88650000D01*
X107100714Y-88578571D01*
X106957857Y-88578571D01*
X105815000Y-89578571D02*
X105815000Y-88792857D01*
X105886428Y-88650000D01*
X106029285Y-88578571D01*
X106315000Y-88578571D01*
X106457857Y-88650000D01*
X105815000Y-89507142D02*
X105957857Y-89578571D01*
X106315000Y-89578571D01*
X106457857Y-89507142D01*
X106529285Y-89364285D01*
X106529285Y-89221428D01*
X106457857Y-89078571D01*
X106315000Y-89007142D01*
X105957857Y-89007142D01*
X105815000Y-88935714D01*
X105100714Y-88578571D02*
X105100714Y-89578571D01*
X105100714Y-88721428D02*
X105029285Y-88650000D01*
X104886428Y-88578571D01*
X104672142Y-88578571D01*
X104529285Y-88650000D01*
X104457857Y-88792857D01*
X104457857Y-89578571D01*
X103100714Y-89578571D02*
X103100714Y-88078571D01*
X103100714Y-89507142D02*
X103243571Y-89578571D01*
X103529285Y-89578571D01*
X103672142Y-89507142D01*
X103743571Y-89435714D01*
X103815000Y-89292857D01*
X103815000Y-88864285D01*
X103743571Y-88721428D01*
X103672142Y-88650000D01*
X103529285Y-88578571D01*
X103243571Y-88578571D01*
X103100714Y-88650000D01*
X102457857Y-89507142D02*
X102315000Y-89578571D01*
X102029285Y-89578571D01*
X101886428Y-89507142D01*
X101815000Y-89364285D01*
X101815000Y-89292857D01*
X101886428Y-89150000D01*
X102029285Y-89078571D01*
X102243571Y-89078571D01*
X102386428Y-89007142D01*
X102457857Y-88864285D01*
X102457857Y-88792857D01*
X102386428Y-88650000D01*
X102243571Y-88578571D01*
X102029285Y-88578571D01*
X101886428Y-88650000D01*
X101386428Y-88578571D02*
X100815000Y-88578571D01*
X101172142Y-88078571D02*
X101172142Y-89364285D01*
X101100714Y-89507142D01*
X100957857Y-89578571D01*
X100815000Y-89578571D01*
X100315000Y-89578571D02*
X100315000Y-88578571D01*
X100315000Y-88078571D02*
X100386428Y-88150000D01*
X100315000Y-88221428D01*
X100243571Y-88150000D01*
X100315000Y-88078571D01*
X100315000Y-88221428D01*
X99600714Y-89578571D02*
X99600714Y-88578571D01*
X99600714Y-88864285D02*
X99529285Y-88721428D01*
X99457857Y-88650000D01*
X99315000Y-88578571D01*
X99172142Y-88578571D01*
X98672142Y-89435714D02*
X98600714Y-89507142D01*
X98672142Y-89578571D01*
X98743571Y-89507142D01*
X98672142Y-89435714D01*
X98672142Y-89578571D01*
X97315000Y-89507142D02*
X97457857Y-89578571D01*
X97743571Y-89578571D01*
X97886428Y-89507142D01*
X97957857Y-89435714D01*
X98029285Y-89292857D01*
X98029285Y-88864285D01*
X97957857Y-88721428D01*
X97886428Y-88650000D01*
X97743571Y-88578571D01*
X97457857Y-88578571D01*
X97315000Y-88650000D01*
X96457857Y-89578571D02*
X96600714Y-89507142D01*
X96672142Y-89435714D01*
X96743571Y-89292857D01*
X96743571Y-88864285D01*
X96672142Y-88721428D01*
X96600714Y-88650000D01*
X96457857Y-88578571D01*
X96243571Y-88578571D01*
X96100714Y-88650000D01*
X96029285Y-88721428D01*
X95957857Y-88864285D01*
X95957857Y-89292857D01*
X96029285Y-89435714D01*
X96100714Y-89507142D01*
X96243571Y-89578571D01*
X96457857Y-89578571D01*
X95315000Y-89578571D02*
X95315000Y-88578571D01*
X95315000Y-88721428D02*
X95243571Y-88650000D01*
X95100714Y-88578571D01*
X94886428Y-88578571D01*
X94743571Y-88650000D01*
X94672142Y-88792857D01*
X94672142Y-89578571D01*
X94672142Y-88792857D02*
X94600714Y-88650000D01*
X94457857Y-88578571D01*
X94243571Y-88578571D01*
X94100714Y-88650000D01*
X94029285Y-88792857D01*
X94029285Y-89578571D01*
M02*
