M48
; DRILL file {KiCad (6.0.10)} date Wed Jul 26 11:36:37 2023
; FORMAT={-:-/ absolute / inch / decimal}
; #@! TF.CreationDate,2023-07-26T11:36:37-05:00
; #@! TF.GenerationSoftware,Kicad,Pcbnew,(6.0.10)
; #@! TF.FileFunction,Plated,1,2,PTH
FMAT,2
INCH
; #@! TA.AperFunction,Plated,PTH,ViaDrill
T1C0.0157
; #@! TA.AperFunction,Plated,PTH,ComponentDrill
T2C0.0236
; #@! TA.AperFunction,Plated,PTH,ComponentDrill
T3C0.0315
; #@! TA.AperFunction,Plated,PTH,ComponentDrill
T4C0.0354
; #@! TA.AperFunction,Plated,PTH,ComponentDrill
T5C0.0394
; #@! TA.AperFunction,Plated,PTH,ComponentDrill
T6C0.0433
; #@! TA.AperFunction,Plated,PTH,ComponentDrill
T7C0.0906
; #@! TA.AperFunction,Plated,PTH,ComponentDrill
T8C0.1260
%
G90
G05
T1
X2.6859Y-3.5165
X3.3012Y-3.7902
X3.3308Y-4.0481
X3.5207Y-4.5341
X3.5688Y-2.6589
X3.5983Y-3.9201
X3.6226Y-3.8951
X3.698Y-2.7973
X3.708Y-3.8105
X3.8214Y-3.2213
X3.8749Y-4.2757
X3.908Y-3.8702
X4.027Y-3.8522
X4.1489Y-3.8339
X4.1498Y-3.9825
X4.2359Y-3.3005
X4.2409Y-4.5587
X4.3517Y-3.5879
X4.5282Y-4.1128
X4.5777Y-2.6194
X4.8537Y-4.3399
X5.0029Y-4.3543
X5.0381Y-4.3763
X5.1053Y-3.3277
X5.1491Y-4.5031
X5.2494Y-3.2859
X5.2712Y-3.1998
X5.3209Y-3.097
X5.6048Y-4.0107
X5.6577Y-3.7979
X5.6694Y-3.4549
X5.7272Y-3.233
X5.8359Y-3.2645
X5.8759Y-4.246
X5.9544Y-3.3108
X5.9545Y-3.1675
X6.0096Y-2.777
X6.0659Y-4.3557
X6.1189Y-4.3608
X6.1309Y-4.2913
X6.1473Y-3.9056
X6.1712Y-4.2718
X6.8475Y-4.9537
X6.8693Y-3.7694
X7.1945Y-3.4301
X7.2041Y-3.7971
X7.2098Y-3.7479
X7.3032Y-3.249
X7.3059Y-3.2175
X7.3173Y-2.8749
X7.3313Y-3.5529
X7.4026Y-1.4852
X7.4611Y-3.7624
X7.5374Y-4.6841
X7.5664Y-3.7609
X8.0463Y-3.2497
X8.105Y-3.3401
X8.1211Y-3.2498
X8.1449Y-3.2761
X8.1486Y-3.0821
X8.5207Y-3.0901
X8.558Y-4.3224
X8.609Y-4.1785
X8.8376Y-3.7362
T2
X4.9Y-2.075
X4.9787Y-2.075
X7.3488Y-4.5628
X7.4276Y-4.5628
T3
X2.25Y-2.1
X2.25Y-2.4
X2.25Y-3.05
X2.25Y-3.65
X2.25Y-4.1
X2.25Y-4.7
X2.2531Y-2.725
X2.35Y-3.05
X2.35Y-3.65
X2.35Y-4.1
X2.35Y-4.7
X2.3516Y-2.725
X2.425Y-5.0
X2.45Y-3.05
X2.45Y-3.65
X2.45Y-4.1
X2.45Y-4.7
X2.55Y-2.1
X2.55Y-2.4
X2.55Y-3.05
X2.55Y-3.65
X2.55Y-4.1
X2.55Y-4.7
X2.625Y-2.725
X2.65Y-3.05
X2.65Y-3.65
X2.65Y-4.1
X2.65Y-4.7
X2.7234Y-2.725
X2.75Y-3.05
X2.75Y-3.65
X2.75Y-4.1
X2.75Y-4.7
X2.825Y-5.0
X2.85Y-2.1
X2.85Y-2.4
X2.85Y-3.05
X2.85Y-3.65
X2.85Y-4.1
X2.85Y-4.7
X2.95Y-3.05
X2.95Y-3.65
X2.95Y-4.1
X2.95Y-4.7
X2.975Y-2.725
X2.975Y-5.0
X3.05Y-3.05
X3.05Y-3.65
X3.05Y-4.1
X3.05Y-4.7
X3.0734Y-2.725
X3.15Y-3.05
X3.15Y-3.65
X3.15Y-4.1
X3.15Y-4.7
X3.25Y-3.05
X3.25Y-3.65
X3.25Y-4.1
X3.25Y-4.7
X3.2858Y-2.102
X3.2858Y-2.202
X3.2858Y-2.302
X3.2858Y-2.402
X3.3Y-2.725
X3.35Y-3.05
X3.35Y-3.65
X3.35Y-4.1
X3.35Y-4.7
X3.375Y-5.0
X3.45Y-3.05
X3.45Y-3.65
X3.45Y-4.1
X3.45Y-4.7
X3.525Y-5.0
X3.55Y-3.05
X3.55Y-3.65
X3.55Y-4.1
X3.55Y-4.7
X3.5858Y-2.102
X3.5858Y-2.202
X3.5858Y-2.302
X3.5858Y-2.402
X3.6234Y-5.0
X3.65Y-4.1
X3.65Y-4.7
X3.7Y-2.725
X3.75Y-4.1
X3.75Y-4.7
X3.85Y-4.1
X3.85Y-4.7
X3.875Y-5.0
X3.9Y-2.0984
X3.9Y-2.1969
X3.9Y-2.4484
X3.9Y-2.5469
X3.9Y-2.7766
X3.9Y-2.875
X3.95Y-4.1
X3.95Y-4.7
X4.05Y-4.1
X4.05Y-4.7
X4.15Y-4.1
X4.15Y-4.7
X4.2Y-2.05
X4.2Y-2.3
X4.2Y-2.55
X4.2Y-2.8
X4.275Y-5.0
X4.45Y-3.05
X4.45Y-3.65
X4.55Y-3.05
X4.55Y-3.65
X4.6Y-2.05
X4.6Y-2.3
X4.6Y-2.55
X4.6Y-2.8
X4.65Y-3.05
X4.65Y-3.65
X4.75Y-3.05
X4.75Y-3.65
X4.85Y-2.375
X4.85Y-2.675
X4.85Y-3.05
X4.85Y-3.65
X4.95Y-2.375
X4.95Y-2.675
X4.95Y-3.05
X4.95Y-3.65
X5.05Y-2.375
X5.05Y-2.675
X5.05Y-3.05
X5.05Y-3.65
X5.05Y-4.1
X5.05Y-4.7
X5.05Y-5.0
X5.15Y-2.375
X5.15Y-2.675
X5.15Y-3.05
X5.15Y-3.65
X5.15Y-4.1
X5.15Y-4.7
X5.25Y-2.375
X5.25Y-2.675
X5.25Y-3.05
X5.25Y-3.65
X5.25Y-4.1
X5.25Y-4.7
X5.35Y-2.375
X5.35Y-2.675
X5.35Y-3.05
X5.35Y-3.65
X5.35Y-4.1
X5.35Y-4.7
X5.45Y-2.375
X5.45Y-2.675
X5.45Y-3.05
X5.45Y-3.65
X5.45Y-4.1
X5.45Y-4.7
X5.45Y-5.0
X5.55Y-2.375
X5.55Y-2.675
X5.55Y-3.05
X5.55Y-3.65
X5.55Y-4.1
X5.55Y-4.7
X5.65Y-2.375
X5.65Y-2.675
X5.65Y-3.05
X5.65Y-3.65
X5.65Y-4.1
X5.65Y-4.7
X5.75Y-2.375
X5.75Y-2.675
X5.75Y-3.05
X5.75Y-3.65
X5.75Y-4.1
X5.75Y-4.7
X5.85Y-2.375
X5.85Y-2.675
X5.85Y-4.1
X5.85Y-4.7
X5.95Y-2.375
X5.95Y-2.675
X5.95Y-4.1
X5.95Y-4.7
X5.975Y-3.005
X5.975Y-3.23
X5.975Y-3.455
X5.975Y-3.68
X5.975Y-3.92
X6.05Y-2.375
X6.05Y-2.675
X6.05Y-4.1
X6.05Y-4.7
X6.15Y-2.375
X6.15Y-2.675
X6.15Y-4.1
X6.15Y-4.7
X6.25Y-4.1
X6.25Y-4.7
X6.35Y-4.1
X6.35Y-4.7
X6.375Y-3.005
X6.375Y-3.23
X6.375Y-3.455
X6.375Y-3.68
X6.375Y-3.92
X6.45Y-4.1
X6.45Y-4.7
X6.55Y-4.1
X6.55Y-4.7
X6.65Y-4.1
X6.65Y-4.7
X6.75Y-4.1
X6.75Y-4.7
X6.7559Y-3.4636
X6.85Y-4.1
X6.85Y-4.7
X6.95Y-4.1
X6.95Y-4.7
X6.9528Y-3.4636
X7.3238Y-3.9378
X7.3238Y-4.2378
X7.3488Y-4.9878
X7.4217Y-2.3305
X7.4217Y-2.6305
X7.4217Y-2.8305
X7.4217Y-3.1305
X7.4217Y-3.3555
X7.4217Y-3.6555
X7.4238Y-3.9378
X7.4238Y-4.2378
X7.4472Y-4.9878
X7.5217Y-2.3305
X7.5217Y-2.6305
X7.5217Y-2.8305
X7.5217Y-3.1305
X7.5217Y-3.3555
X7.5217Y-3.6555
X7.5238Y-3.9378
X7.5238Y-4.2378
X7.55Y-1.625
X7.55Y-1.85
X7.5512Y-2.064
X7.6217Y-2.3305
X7.6217Y-2.6305
X7.6217Y-2.8305
X7.6217Y-3.1305
X7.6217Y-3.3555
X7.6217Y-3.6555
X7.6238Y-3.9378
X7.6238Y-4.2378
X7.6488Y-4.5628
X7.7217Y-2.3305
X7.7217Y-2.6305
X7.7217Y-2.8305
X7.7217Y-3.1305
X7.7217Y-3.3555
X7.7217Y-3.6555
X7.7238Y-3.9378
X7.7238Y-4.2378
X7.8217Y-2.3305
X7.8217Y-2.6305
X7.8217Y-2.8305
X7.8217Y-3.1305
X7.8217Y-3.3555
X7.8217Y-3.6555
X7.8238Y-3.9378
X7.8238Y-4.2378
X7.9217Y-2.3305
X7.9217Y-2.6305
X7.9217Y-2.8305
X7.9217Y-3.1305
X7.9217Y-3.3555
X7.9217Y-3.6555
X7.9238Y-3.9378
X7.9238Y-4.2378
X7.95Y-1.625
X7.95Y-1.85
X7.9512Y-2.064
X8.0217Y-2.3305
X8.0217Y-2.6305
X8.0217Y-2.8305
X8.0217Y-3.1305
X8.0217Y-3.3555
X8.0217Y-3.6555
X8.0238Y-3.9378
X8.0238Y-4.2378
X8.0488Y-4.5628
X8.1217Y-2.3305
X8.1217Y-2.6305
X8.1238Y-3.9378
X8.1238Y-4.2378
X8.1488Y-4.8878
X8.1488Y-4.9862
X8.2238Y-3.9378
X8.2238Y-4.2378
X8.3087Y-3.4524
X8.3087Y-3.5508
X8.3122Y-2.9177
X8.3122Y-3.0161
X8.3238Y-3.9378
X8.3238Y-4.2378
X8.3488Y-4.5628
X8.4016Y-2.4154
X8.4016Y-2.5138
X8.4238Y-3.9378
X8.4238Y-4.2378
X8.4488Y-4.8878
X8.4488Y-4.9862
X8.5238Y-3.9378
X8.5238Y-4.2378
X8.5409Y-4.5628
X8.6238Y-3.9378
X8.6238Y-4.2378
X8.6657Y-2.1287
X8.6657Y-2.4083
X8.8626Y-2.1287
X8.8626Y-2.4083
T4
X4.65Y-4.95
X4.75Y-4.95
X8.225Y-1.675
X8.325Y-1.675
T5
X2.0157Y-2.373
X2.0157Y-2.473
X2.0157Y-2.7441
X2.0157Y-2.8441
X3.2951Y-1.825
X3.3951Y-1.825
X3.475Y-1.825
X3.575Y-1.825
X3.875Y-3.175
X3.875Y-3.275
X3.875Y-3.375
X4.15Y-3.175
X4.15Y-3.275
X4.15Y-3.375
X4.6549Y-1.647
X4.7Y-1.5691
X4.7Y-1.725
X4.7451Y-1.647
X4.7902Y-1.5691
X4.7902Y-1.725
X4.8352Y-1.647
X4.8803Y-1.5691
X4.8803Y-1.725
X4.9254Y-1.647
X4.9705Y-1.5691
X4.9705Y-1.725
X5.0156Y-1.647
X5.0606Y-1.5691
X5.0606Y-1.725
X5.7689Y-2.0173
X5.8689Y-2.0173
X5.9689Y-2.0173
X6.0689Y-2.0173
X6.1689Y-2.0173
X6.2689Y-2.0173
X6.6Y-1.65
X6.6Y-1.75
X6.6Y-1.85
X6.6Y-1.95
X6.6Y-2.05
X6.6Y-2.15
X6.6Y-2.25
X6.6Y-2.35
X6.6Y-2.45
X6.6Y-2.55
X6.6Y-2.65
X6.6Y-2.75
X6.6Y-2.85
X6.6Y-2.95
X6.6Y-3.05
X6.6Y-5.0
X6.7Y-5.0
X7.2Y-1.65
X7.2Y-1.75
X7.2Y-1.85
X7.2Y-1.95
X7.2Y-2.05
X7.2Y-2.15
X7.2Y-2.25
X7.2Y-2.35
X7.2Y-2.45
X7.2Y-2.55
X7.2Y-2.65
X7.2Y-2.75
X7.2Y-2.85
X7.2Y-2.95
X7.2Y-3.05
X7.7988Y-4.9378
X7.7988Y-5.0378
X8.2333Y-2.0138
X8.3333Y-2.0138
X8.6028Y-2.8329
X8.6028Y-2.9329
X8.6028Y-3.0329
X8.6028Y-3.3781
X8.6028Y-3.4781
X8.6028Y-3.5781
X8.9972Y-2.6378
X8.9972Y-2.7378
X8.9972Y-2.8378
X8.9972Y-2.9378
X8.9972Y-3.0378
X8.9972Y-3.1378
X8.9972Y-3.2378
X8.9972Y-3.3378
X8.9972Y-3.4378
X8.9972Y-3.5378
X8.9972Y-3.6378
X8.9972Y-3.7378
X8.9972Y-3.8378
X8.9972Y-3.9378
X8.9972Y-4.0378
X8.9972Y-4.1378
X8.9972Y-4.2378
X8.9972Y-4.3378
X8.9972Y-4.4378
X8.9972Y-4.5378
X8.9972Y-4.6378
X8.9972Y-4.7378
X9.0972Y-2.6378
X9.0972Y-2.7378
X9.0972Y-2.8378
X9.0972Y-2.9378
X9.0972Y-3.0378
X9.0972Y-3.1378
X9.0972Y-3.2378
X9.0972Y-3.3378
X9.0972Y-3.4378
X9.0972Y-3.5378
X9.0972Y-3.6378
X9.0972Y-3.7378
X9.0972Y-3.8378
X9.0972Y-3.9378
X9.0972Y-4.0378
X9.0972Y-4.1378
X9.0972Y-4.2378
X9.0972Y-4.3378
X9.0972Y-4.4378
X9.0972Y-4.5378
X9.0972Y-4.6378
X9.0972Y-4.7378
T6
X2.2648Y-1.5984
X2.2648Y-1.7756
X2.5207Y-1.5984
X2.5207Y-1.7756
X2.7077Y-1.5984
X2.7077Y-1.7756
X2.9636Y-1.5984
X2.9636Y-1.7756
X9.1841Y-2.0039
X9.1841Y-2.1039
X9.1841Y-2.2039
T7
X3.175Y-1.7199
X3.7152Y-1.7199
T8
X2.0Y-1.6
X2.0Y-5.05
X4.3778Y-1.6443
X5.362Y-1.6443
X9.2Y-1.6
X9.2Y-5.05
T5
G00X8.63Y-1.7175
M15
G01X8.63Y-1.7963
M16
G05
G00X8.8544Y-1.6388
M15
G01X8.7756Y-1.6388
M16
G05
G00X8.8544Y-1.875
M15
G01X8.7756Y-1.875
M16
G05
T0
M30
